<mxfile host="65bd71144e">
    <diagram id="MprKNRDaeQRdwl8EXEi7" name="Page-1">
        <mxGraphModel dx="712" dy="751" grid="1" gridSize="10" guides="1" tooltips="1" connect="1" arrows="1" fold="1" page="1" pageScale="1" pageWidth="850" pageHeight="1100" math="0" shadow="0">
            <root>
                <mxCell id="0"/>
                <mxCell id="1" parent="0"/>
                <mxCell id="6" value="Monitoring Namespace" style="sketch=0;outlineConnect=0;html=1;whiteSpace=wrap;fontSize=12;fontStyle=0;shape=mxgraph.aws4.group;grIcon=mxgraph.aws4.group_vpc;strokeColor=#6F0000;fillColor=none;verticalAlign=top;align=left;spacingLeft=30;dashed=0;fontColor=#1A1A1A;" parent="1" vertex="1">
                    <mxGeometry x="730" y="940" width="310" height="140" as="geometry"/>
                </mxCell>
                <mxCell id="2" value="Gateway Namespace" style="sketch=0;outlineConnect=0;html=1;whiteSpace=wrap;fontSize=12;fontStyle=0;shape=mxgraph.aws4.group;grIcon=mxgraph.aws4.group_vpc;strokeColor=#6c8ebf;fillColor=none;verticalAlign=top;align=left;spacingLeft=30;dashed=0;" parent="1" vertex="1">
                    <mxGeometry x="250" y="581" width="350" height="369" as="geometry"/>
                </mxCell>
                <mxCell id="3" value="Dagster Namespace" style="sketch=0;outlineConnect=0;html=1;whiteSpace=wrap;fontSize=12;fontStyle=0;shape=mxgraph.aws4.group;grIcon=mxgraph.aws4.group_vpc;strokeColor=#9673a6;fillColor=none;verticalAlign=top;align=left;spacingLeft=30;dashed=0;" parent="1" vertex="1">
                    <mxGeometry x="720" y="520" width="330" height="380" as="geometry"/>
                </mxCell>
                <mxCell id="5" value="API Server Namespace" style="sketch=0;outlineConnect=0;html=1;whiteSpace=wrap;fontSize=12;fontStyle=0;shape=mxgraph.aws4.group;grIcon=mxgraph.aws4.group_vpc;strokeColor=#d6b656;fillColor=none;verticalAlign=top;align=left;spacingLeft=30;dashed=0;" parent="1" vertex="1">
                    <mxGeometry x="720" y="362" width="330" height="110" as="geometry"/>
                </mxCell>
                <mxCell id="7" value="Spark Cluster Namespace" style="sketch=0;outlineConnect=0;html=1;whiteSpace=wrap;fontSize=12;fontStyle=0;shape=mxgraph.aws4.group;grIcon=mxgraph.aws4.group_vpc;strokeColor=#d79b00;fillColor=none;verticalAlign=top;align=left;spacingLeft=30;dashed=0;" parent="1" vertex="1">
                    <mxGeometry x="1120" y="560" width="420" height="140" as="geometry"/>
                </mxCell>
                <mxCell id="15" style="edgeStyle=none;html=1;" parent="1" source="8" target="10" edge="1">
                    <mxGeometry relative="1" as="geometry"/>
                </mxCell>
                <mxCell id="16" style="edgeStyle=none;html=1;" parent="1" source="8" target="13" edge="1">
                    <mxGeometry relative="1" as="geometry"/>
                </mxCell>
                <mxCell id="17" style="edgeStyle=none;html=1;entryX=0;entryY=0.5;entryDx=0;entryDy=0;" parent="1" source="8" target="14" edge="1">
                    <mxGeometry relative="1" as="geometry"/>
                </mxCell>
                <mxCell id="8" value="Istio Gateway&lt;div&gt;(Load Balancer)&lt;/div&gt;" style="sketch=0;html=1;verticalAlign=top;labelPosition=center;verticalLabelPosition=bottom;align=center;spacingTop=-6;fontSize=11;fontStyle=1;fontColor=#999999;shape=image;aspect=fixed;imageAspect=0;image=data:image/svg+xml,PHN2ZyB4bWxucz0iaHR0cDovL3d3dy53My5vcmcvMjAwMC9zdmciIHhtbG5zOnY9Imh0dHBzOi8vdmVjdGEuaW8vbmFubyIgd2lkdGg9IjE2MCIgaGVpZ2h0PSIyNDAiIHZpZXdCb3g9IjAgMCAxNjAgMjQwIj4mI3hhOwk8c3R5bGUgdHlwZT0idGV4dC9jc3MiPiYjeGE7CS5zdDB7ZmlsbDojNDY2YmIwO30mI3hhOwk8L3N0eWxlPiYjeGE7CTxwYXRoIGNsYXNzPSJzdDAiIGQ9Ik02MCAyNDBMMCAyMTBoMTYwem0wLTE2MEwwIDIwMGw2MC0xMHpNNzAgMHYxOTBsOTAgMTB6Ii8+JiN4YTs8L3N2Zz4=;" parent="1" vertex="1">
                    <mxGeometry x="290" y="691" width="37.29" height="58" as="geometry"/>
                </mxCell>
                <mxCell id="29" style="edgeStyle=orthogonalEdgeStyle;html=1;entryX=0;entryY=0.5;entryDx=0;entryDy=0;dashed=1;" parent="1" source="10" target="26" edge="1">
                    <mxGeometry relative="1" as="geometry"/>
                </mxCell>
                <mxCell id="10" value="API Server Http Router" style="sketch=0;html=1;verticalAlign=top;labelPosition=center;verticalLabelPosition=bottom;align=center;spacingTop=-6;fontSize=11;fontStyle=1;fontColor=#999999;shape=image;aspect=fixed;imageAspect=0;image=data:image/svg+xml,PHN2ZyB4bWxucz0iaHR0cDovL3d3dy53My5vcmcvMjAwMC9zdmciIHhtbG5zOnY9Imh0dHBzOi8vdmVjdGEuaW8vbmFubyIgd2lkdGg9IjE2MCIgaGVpZ2h0PSIyNDAiIHZpZXdCb3g9IjAgMCAxNjAgMjQwIj4mI3hhOwk8c3R5bGUgdHlwZT0idGV4dC9jc3MiPiYjeGE7CS5zdDB7ZmlsbDojNDY2YmIwO30mI3hhOwk8L3N0eWxlPiYjeGE7CTxwYXRoIGNsYXNzPSJzdDAiIGQ9Ik02MCAyNDBMMCAyMTBoMTYwem0wLTE2MEwwIDIwMGw2MC0xMHpNNzAgMHYxOTBsOTAgMTB6Ii8+JiN4YTs8L3N2Zz4=;" parent="1" vertex="1">
                    <mxGeometry x="500" y="601" width="37.29" height="58" as="geometry"/>
                </mxCell>
                <mxCell id="28" style="edgeStyle=orthogonalEdgeStyle;html=1;entryX=0;entryY=0.5;entryDx=0;entryDy=0;dashed=1;" parent="1" source="13" target="24" edge="1">
                    <mxGeometry relative="1" as="geometry"/>
                </mxCell>
                <mxCell id="13" value="Dagster Http Router" style="sketch=0;html=1;verticalAlign=top;labelPosition=center;verticalLabelPosition=bottom;align=center;spacingTop=-6;fontSize=11;fontStyle=1;fontColor=#999999;shape=image;aspect=fixed;imageAspect=0;image=data:image/svg+xml,PHN2ZyB4bWxucz0iaHR0cDovL3d3dy53My5vcmcvMjAwMC9zdmciIHhtbG5zOnY9Imh0dHBzOi8vdmVjdGEuaW8vbmFubyIgd2lkdGg9IjE2MCIgaGVpZ2h0PSIyNDAiIHZpZXdCb3g9IjAgMCAxNjAgMjQwIj4mI3hhOwk8c3R5bGUgdHlwZT0idGV4dC9jc3MiPiYjeGE7CS5zdDB7ZmlsbDojNDY2YmIwO30mI3hhOwk8L3N0eWxlPiYjeGE7CTxwYXRoIGNsYXNzPSJzdDAiIGQ9Ik02MCAyNDBMMCAyMTBoMTYwem0wLTE2MEwwIDIwMGw2MC0xMHpNNzAgMHYxOTBsOTAgMTB6Ii8+JiN4YTs8L3N2Zz4=;" parent="1" vertex="1">
                    <mxGeometry x="500" y="691" width="37.29" height="58" as="geometry"/>
                </mxCell>
                <mxCell id="23" style="edgeStyle=orthogonalEdgeStyle;html=1;entryX=0;entryY=0.5;entryDx=0;entryDy=0;dashed=1;" parent="1" source="14" target="21" edge="1">
                    <mxGeometry relative="1" as="geometry"/>
                </mxCell>
                <mxCell id="14" value="Monitoring Http Router" style="sketch=0;html=1;verticalAlign=top;labelPosition=center;verticalLabelPosition=bottom;align=center;spacingTop=-6;fontSize=11;fontStyle=1;fontColor=#999999;shape=image;aspect=fixed;imageAspect=0;image=data:image/svg+xml,PHN2ZyB4bWxucz0iaHR0cDovL3d3dy53My5vcmcvMjAwMC9zdmciIHhtbG5zOnY9Imh0dHBzOi8vdmVjdGEuaW8vbmFubyIgd2lkdGg9IjE2MCIgaGVpZ2h0PSIyNDAiIHZpZXdCb3g9IjAgMCAxNjAgMjQwIj4mI3hhOwk8c3R5bGUgdHlwZT0idGV4dC9jc3MiPiYjeGE7CS5zdDB7ZmlsbDojNDY2YmIwO30mI3hhOwk8L3N0eWxlPiYjeGE7CTxwYXRoIGNsYXNzPSJzdDAiIGQ9Ik02MCAyNDBMMCAyMTBoMTYwem0wLTE2MEwwIDIwMGw2MC0xMHpNNzAgMHYxOTBsOTAgMTB6Ii8+JiN4YTs8L3N2Zz4=;" parent="1" vertex="1">
                    <mxGeometry x="500" y="781" width="37.29" height="58" as="geometry"/>
                </mxCell>
                <mxCell id="18" value="Grafana" style="image;aspect=fixed;html=1;points=[];align=center;fontSize=12;image=img/lib/azure2/other/Grafana.svg;" parent="1" vertex="1">
                    <mxGeometry x="860" y="990.0000000000001" width="68" height="52.800000000000004" as="geometry"/>
                </mxCell>
                <mxCell id="19" value="" style="points=[];aspect=fixed;html=1;align=center;shadow=0;dashed=0;fillColor=#FF6A00;strokeColor=none;shape=mxgraph.alibaba_cloud.prometheus;" parent="1" vertex="1">
                    <mxGeometry x="960" y="991.95" width="48.9" height="48.9" as="geometry"/>
                </mxCell>
                <mxCell id="20" value="Prometheus" style="text;html=1;align=center;verticalAlign=middle;whiteSpace=wrap;rounded=0;" parent="1" vertex="1">
                    <mxGeometry x="954.45" y="1040.85" width="60" height="30" as="geometry"/>
                </mxCell>
                <mxCell id="21" value="Cluster IP Service" style="shape=rect;fillColor=#198038;aspect=fixed;resizable=0;labelPosition=center;verticalLabelPosition=bottom;align=center;verticalAlign=top;strokeColor=none;fontSize=12;" parent="1" vertex="1">
                    <mxGeometry x="770" y="991.95" width="48" height="48" as="geometry"/>
                </mxCell>
                <mxCell id="22" value="" style="fillColor=#ffffff;strokeColor=none;dashed=0;outlineConnect=0;html=1;labelPosition=center;verticalLabelPosition=bottom;verticalAlign=top;part=1;movable=0;resizable=0;rotatable=0;shape=mxgraph.ibm_cloud.ibm-cloud--kubernetes-service" parent="21" vertex="1">
                    <mxGeometry width="24" height="24" relative="1" as="geometry">
                        <mxPoint x="12" y="12" as="offset"/>
                    </mxGeometry>
                </mxCell>
                <mxCell id="24" value="Cluster IP Service" style="shape=rect;fillColor=#198038;aspect=fixed;resizable=0;labelPosition=center;verticalLabelPosition=bottom;align=center;verticalAlign=top;strokeColor=none;fontSize=12;" parent="1" vertex="1">
                    <mxGeometry x="750" y="695.6" width="48" height="48" as="geometry"/>
                </mxCell>
                <mxCell id="25" value="" style="fillColor=#ffffff;strokeColor=none;dashed=0;outlineConnect=0;html=1;labelPosition=center;verticalLabelPosition=bottom;verticalAlign=top;part=1;movable=0;resizable=0;rotatable=0;shape=mxgraph.ibm_cloud.ibm-cloud--kubernetes-service" parent="24" vertex="1">
                    <mxGeometry width="24" height="24" relative="1" as="geometry">
                        <mxPoint x="12" y="12" as="offset"/>
                    </mxGeometry>
                </mxCell>
                <mxCell id="26" value="Cluster IP Service" style="shape=rect;fillColor=#198038;aspect=fixed;resizable=0;labelPosition=center;verticalLabelPosition=bottom;align=center;verticalAlign=top;strokeColor=none;fontSize=12;" parent="1" vertex="1">
                    <mxGeometry x="757.2" y="388" width="48" height="48" as="geometry"/>
                </mxCell>
                <mxCell id="27" value="" style="fillColor=#ffffff;strokeColor=none;dashed=0;outlineConnect=0;html=1;labelPosition=center;verticalLabelPosition=bottom;verticalAlign=top;part=1;movable=0;resizable=0;rotatable=0;shape=mxgraph.ibm_cloud.ibm-cloud--kubernetes-service" parent="26" vertex="1">
                    <mxGeometry width="24" height="24" relative="1" as="geometry">
                        <mxPoint x="12" y="12" as="offset"/>
                    </mxGeometry>
                </mxCell>
                <mxCell id="30" value="Dagster UI" style="shape=image;verticalLabelPosition=bottom;labelBackgroundColor=default;verticalAlign=top;aspect=fixed;imageAspect=0;image=data:image/png,iVBORw0KGgoAAAANSUhEUgAAAOAAAADgCAMAAAAt85rTAAABLFBMVEX///9PQ901LY4DBhVNQd1QROAAAABIO9xMP91ENtw0LIpHOtw/MNtBM9tBMtszLIk8LNvw7/xTR97h3/k2LpLo5/rZ1/eGf+b5+P46MZ9NQdguJYvNyvS0sO/d2/ijnuxpX+EoHomvqu7FwvN7c+TRz/VZTt9kWuFEOr1KP9CQiujz8/2moeyAeOV2buODfOabluq9ufE9NKhtZOKNhuhYTd+VjulHPcdBN7MgFIcPAIRlW+C5tfDu7u+enqJiY2gfIS18fIDCwsXc3d5AQUivsLM1Nj9fYGZtbnReYFoTEzEsKlxBPYRJQrNWT8JYT8w6N3EdG0o3KMhZULmSjsOem8iEgLrDwtxlYKkqG6lJQ5pYUqVxbKwtIaK4ttmMh9KXk9OsqdBFPZmXlb7IHWJiAAANoklEQVR4nO1dC3faRha2yAhJSAIJCZunzcOA8dsGPyBONm122+6j7W43ttPa612n//8/rATSPCQhIcEI0jPf6UlORTTo4965r7kz2tpiYGBgYGBgYGBgYGBgYGBgYGBgYGBgYGBgYGBgYGBgYGBgYGBg2NrSjU7j+Hq/z2kWVKHYH56ctzuGXl73g60Cu42dvqCokiyIIuAsAABEUZQlVRF6p+d1fd0PuAxKjX1NkYQZMT8sprKqcdedr5Pk7t5bVRKDqRE0BVXevzta9+PGROm4qMkLsHM4ipI2vPiK5Lh9Iklz1HIuRFUY7a77wRdDp6/Nm3XhchS0YXfdDx+Nu15+YdX0i1HZdIoXopqc3pSi1txgikYzn0Q3vVLc2VBzUx5py0nPhaC1180lCBdFeSX0bKhvS+um44W+ry2vnQiidrxuRiS6orBCejbyp5sU3OytVHwziMrmmNMTZeX0LAB1Q9S0tELrQjJUdtbNzUZXXI1zCII0XDc7KzRLOP3srDf6lxGu1u0vjvNJ2ImqVjw9229a6XAESRGsl+GxlojeSce532ifRsTmomyskV87ifykJpH3GREhgiisT4Z3SeQnXXuHqRdDowQRrCv4rqsJ7Iuy5x/oaKiGMuylz83GdhL7KY8CxzoPDRWEtXgLHSTgB3pzir3XoTL0q3UK6CXx70pn3nA7oeGQdpcmtSlGSeIzUJw/4FXYDwaktJ1FO1F8LTXmj7gbarJEkO5ChpHEQVhJXphLOwzViTnWiRLKiSYgJ77FB3n3/k8fsh+++RYOGl6xmj99KeBaSsKPE8+wMT5ms9k3b95ksx9ciuehIgRyekq6nUxBOZlw8t/b/Gxkv5ldKIXX+1NU0rcJM0CJKAe+cwm+yb6fXTkNH1fdTolfO9QphxGERvSj/cd7xHCmpXfhmi+GOJlVIsIYhBF0Jfgx++e/WH99gAS/m142InyPGuJlVohELn4K+dwZ4oesZVzev/uIRDgV6VZE9A7ENPKKCFMQBsEtIk2JZbPffOeZhc2IyQ1/IZo4S17idf2ga16gAN9kf5h+cB01tka/GqwndBE2gDxTMaSakOD30w+Oo7Q/BRFeL1MEVS+mY7zzE5xJsB0VQNCfhUdJskAI8XQ2ip/g+8UIelwpBTSSBWkutFm0/b2XoWNFI1WUAyplgr3lVlmEw+ko39puAsH1gxHR6BQq3Zg7aRTqAuRnJcO//u3v/6j8+NPPP//804/mP//lCHBrJ9pCu1pOCUuZmOnz9a1R9PawKPI8DyxYf4l8z6kE96ODXCDRLJOWr5ZeB5RGnabmixUEVdmz7OMiZQKJ5qLa9goWAoXg5Qggy+elRYYPq+ssjQWMQHIAebEsRaPY8cWtfqU6PmR6Olpa0oauBmKTGsHOHC/P89Z/fFoEKdrRUaCb4geXuUKhcpMaQ+mCFsFhkP3jB5lcJpPJ5W7TYijQqj7pgW2g1YyDQloyBDIlgoElE/4g5xDMVdISoUYpZ7oIsjF8xSWYyVRTIqjW6RAMTGZ4E/IrDFIiKAesEq8C50FGdB0SpJVRBBae+YNC6nMQXNFZpgj0EhxXSaahdmhQ5ZLFBwodVz8nm6+atgxz8bwEXz24NC1UbgcJKObpdFqSbpCvVqvO739QMc3LaqwHvc3Npm4uV7iMTzBspXgJ/ILTG1yaGdOJz2yesehVMcuUyZmxjROlhAIjyN9MnzBXSBSfVZFrmcKMO4hTu6JIsOpKIFF8ViH5ZQoHMQeh5Cd+gY/B3y4Rn6GbkQhjDkEu9tMgiGRQiE1wUPDyy+RixkDgigrBA2RFsfgsroXAQx9IMKaiU8on/g0d/TISHPj5ZXLkJIz0/pQK+J9gLLrEHPQKsNZqWaPgxpgfHBxEeX+NCsF7LNiGAoxrRavkDJw8vN63argErQQzF1keoEPwEbMyA3NWp4hr4PlLXICmOV2x/VzDfqaZDYrwHAoVgvqv2O9cvbVC0MuBE8ksXFSrEvIbP04HPpogK8pfLqD6QKJCsPwbnk5AVgTXCKACx0yCzpL7EzLFvPtRKEGOCsGt5yB3xVczuQBLOIcgEaTVPjsDf0a/XLVQG7dMjwTtwis+zHSNigIe/xPEwXSEUoiWIX9DmJjxizPwLUD/ovX8eP9bK3OJT4dKoVDBR6eV0h9N/F49VkbvTDBoQt3EHLNev05z2YcWpg9ObI59N6Vg21IlvxrGqsmQTr727AxroP0lktOc3UJ21TG8uOegtv7yMvYLJUZVjfQRrg0lmiskp+T5Cc1K5xtwBaFWvC+bPgccR4Kkk6/95g6Lij1wct3L2F2W2akRBBVqjZWfWl5LEmMOembg+NUZFNNQ2W2D+S8KC2/GDy8vz+McMjtAotYOpE/8/gla0YiojfeE2RV3UGzRSnPLZX1kV2dm53WM5j/o0+tufqh5ldRZXYpOy0kfiHzEEVpWRbuUMKH+b3blCemOuE+N35be8jl0nrs1TTMykvEk8tDJ4wv/rg3d2kXrPKojVCzUp7iIbX1PK+ejMq3ghtNzy1TIB7rKqAtQG4Hgzi1kV4EbtGBmJ09p8WUG08wkqdWSUXam9ckdD+tugg2zWGes7O7LaiOCGtUNBo+T2BUGGyapoNBF7GKNDZpr/UuooQR6BNSIS3s/4adW7DofXzU9CgrtPNa9hdonUMcYEN1rRajJtFbPIL7UMvEKvry30jtxLSixRUGBU0tBZNwWX6zTmJ6bd7/LtOvti09E15EgD3HvDoVv8kICxJpS8+62OrSngtbiGYbSxGKYuV0si+d9hd7xMxwJ3+SFBIiuItL78Bq1JgsMxjhjC/FgAYr8wPQUeluI3wm2KI4JEKktXEbSZai1lNbOSFim1A5eKhEUebtJKOORH/TwWw28bQOa0C3kGJFDQFoL6BScvDCs+D4zVdTBvIKTdfmm4ivTjx/gGF0FW3BEe8uw5AkltpgNTWnDcmnGMJPLmbc3nKesZv9v9ebSLPiq2JN7NALeFgtUV1Z4u5HimpgukjV1G+qi/HnsPHSuUDAvb28G1aqdEFp/Dm4OLHL+NZZMrfUI7y8Rh5Gg/Z37KLJBQfVpgNmhj0+TGnr2nE3IXnW3fEjBL7mZej6hPE4v4vxkuDe0GxTZ7GJmJ80jyYwv40Aiwaih+NOSH8D5AeBex7vCRXgAAtbAQjcO9eF10lqU3uQJ6/0wBKIlBZ1PhW/FhrMNCwfScIIEyg/jRSia4y+P2F0dhWjYUGB+V8cjmxP3KnLydDcVBKP0MBnXwunVJl9e8Fs8xyTJ0JYcFbEPYPmimw8gnSpePo9bcznWWq1n8pyGM7ItE1twH2ILdMjfYfGctq7jgY5enyYWSQ9Ls9YaT55eyU2NRo9sWhRlaFr3sNQCcO5tF5gA13lKV/nx/vmpNRmPWw7G4y+fHx49Rq+85znCEqBTqTp4U7/i1nbxDX35tJz8FEa97pvxum683N///vvv9/evQQeFd3ueplqAlK6E7+5G/hyzq5Q3ZpHY7mmqqvVjlX+MU+8JpCKA21h03DMCGVoY3PGnOAO3Z6eFifnmwhRLZ77jcUXM6hPnfygwXsFKGkKaJhTueBcV0FigkF6uDzVfw7Dcg3eW+/inAtTFEVJpJNUU0MHtnSTvX4QHUMbeVcD5cOoQ3TXETSuAB43hjl+iXWvCQW6UtE86bzaM4D3uev2c02R/Ly3Q0AOXCX6c5kZueOpEa10+GIc+dRMlhRuO2l0DSaVs1BuHTTkfwM7SQhltxi33CX55yLwZWLJJA4FbKIAoSKqiaVyv3+wVZU1T1LmvKlCxE25L5Ml4MrQl59i3COmeNVoOOzTOfqEECN1vL2pYT/IumVmgQ1Xq+ERP4ZAHAo0lNrsC5RSzuxdkZiEW3c8M/EfMp3mi0xRtv9VfkJ4k4ivsnvOPUWSj45mFQHFFcB5KO0qCk4+AxOE1h6MmuW8XyG5kU8ZLGkBYy+thti3fHW9TryhJx/hc6nCkGgBUHMUzJ05L1YJiMA7nbBoPhKC8JfY7HO14TBWQED/ccaTq4j3QGz1NXuD9GUBUtRGZ7HSAZzcbJr9T/CNKLegLo7Q3lNVQXRVlpXjWIaeRlVl4bkGZBen4wdpOiEXQO4dFTZVFryiB7fsV7e1x12Mk9JFPtQXOjaVLPWJmahtyJLxe3ztrFlUlr0oOVEW+Go4u/Fm4fu23TtKp+xsYZNKY36iXTxzppW7n4q7RbjTuLurBL/8qHQq+raTYqe8lUg0kWo2FlHDUOQ3wLUBB5nWfDEzTrFIsj+4hF3RuuACQGpeJ4yTEeWcCbyAsQyQoQcYW5E8wFsSJLiK3SW/VCIHevZ7rSgSNaP7EytgWv3Uf5R+Fcql+dzzqK1p+Xl4ItDNSSFi7iFjcdPk1rmYvHpwbBACp6Isy4eGlwppfVBCNEyUihJNBgI8rOW+9U5ubLr+Ik6qBrI0CKRhCXhCkTXsvkR/lYpj8gATO50qoc3h2vOniCz/BS1Slr4BBBDrzztgCsjKkdqZPigg+TB0Iiry3zpecrBD+c/ysvLC3syHJzwpQxzNaIEp5rX+8+/WElgugbYeewH6psCL1ThrepPcPAGMHaELzZK+x/cd4KzQDAwMDAwMDAwMDAwMDAwMDAwMDAwMDAwMDAwMDAwMDAwMDAwMl/B/RXidKJrt7+wAAAABJRU5ErkJggg==;" parent="1" vertex="1">
                    <mxGeometry x="848.2" y="559.9999999999999" width="73.6" height="73.6" as="geometry"/>
                </mxCell>
                <mxCell id="31" value="Dagster Daemon" style="shape=image;verticalLabelPosition=bottom;labelBackgroundColor=default;verticalAlign=top;aspect=fixed;imageAspect=0;image=data:image/png,iVBORw0KGgoAAAANSUhEUgAAAOAAAADgCAMAAAAt85rTAAABLFBMVEX///9PQ901LY4DBhVNQd1QROAAAABIO9xMP91ENtw0LIpHOtw/MNtBM9tBMtszLIk8LNvw7/xTR97h3/k2LpLo5/rZ1/eGf+b5+P46MZ9NQdguJYvNyvS0sO/d2/ijnuxpX+EoHomvqu7FwvN7c+TRz/VZTt9kWuFEOr1KP9CQiujz8/2moeyAeOV2buODfOabluq9ufE9NKhtZOKNhuhYTd+VjulHPcdBN7MgFIcPAIRlW+C5tfDu7u+enqJiY2gfIS18fIDCwsXc3d5AQUivsLM1Nj9fYGZtbnReYFoTEzEsKlxBPYRJQrNWT8JYT8w6N3EdG0o3KMhZULmSjsOem8iEgLrDwtxlYKkqG6lJQ5pYUqVxbKwtIaK4ttmMh9KXk9OsqdBFPZmXlb7IHWJiAAANoklEQVR4nO1dC3faRha2yAhJSAIJCZunzcOA8dsGPyBONm122+6j7W43ttPa612n//8/rATSPCQhIcEI0jPf6UlORTTo4965r7kz2tpiYGBgYGBgYGBgYGBgYGBgYGBgYGBgYGBgYGBgYGBgYGBgYGBg2NrSjU7j+Hq/z2kWVKHYH56ctzuGXl73g60Cu42dvqCokiyIIuAsAABEUZQlVRF6p+d1fd0PuAxKjX1NkYQZMT8sprKqcdedr5Pk7t5bVRKDqRE0BVXevzta9+PGROm4qMkLsHM4ipI2vPiK5Lh9Iklz1HIuRFUY7a77wRdDp6/Nm3XhchS0YXfdDx+Nu15+YdX0i1HZdIoXopqc3pSi1txgikYzn0Q3vVLc2VBzUx5py0nPhaC1180lCBdFeSX0bKhvS+um44W+ry2vnQiidrxuRiS6orBCejbyp5sU3OytVHwziMrmmNMTZeX0LAB1Q9S0tELrQjJUdtbNzUZXXI1zCII0XDc7KzRLOP3srDf6lxGu1u0vjvNJ2ImqVjw9229a6XAESRGsl+GxlojeSce532ifRsTmomyskV87ifykJpH3GREhgiisT4Z3SeQnXXuHqRdDowQRrCv4rqsJ7Iuy5x/oaKiGMuylz83GdhL7KY8CxzoPDRWEtXgLHSTgB3pzir3XoTL0q3UK6CXx70pn3nA7oeGQdpcmtSlGSeIzUJw/4FXYDwaktJ1FO1F8LTXmj7gbarJEkO5ChpHEQVhJXphLOwzViTnWiRLKiSYgJ77FB3n3/k8fsh+++RYOGl6xmj99KeBaSsKPE8+wMT5ms9k3b95ksx9ciuehIgRyekq6nUxBOZlw8t/b/Gxkv5ldKIXX+1NU0rcJM0CJKAe+cwm+yb6fXTkNH1fdTolfO9QphxGERvSj/cd7xHCmpXfhmi+GOJlVIsIYhBF0Jfgx++e/WH99gAS/m142InyPGuJlVohELn4K+dwZ4oesZVzev/uIRDgV6VZE9A7ENPKKCFMQBsEtIk2JZbPffOeZhc2IyQ1/IZo4S17idf2ga16gAN9kf5h+cB01tka/GqwndBE2gDxTMaSakOD30w+Oo7Q/BRFeL1MEVS+mY7zzE5xJsB0VQNCfhUdJskAI8XQ2ip/g+8UIelwpBTSSBWkutFm0/b2XoWNFI1WUAyplgr3lVlmEw+ko39puAsH1gxHR6BQq3Zg7aRTqAuRnJcO//u3v/6j8+NPPP//804/mP//lCHBrJ9pCu1pOCUuZmOnz9a1R9PawKPI8DyxYf4l8z6kE96ODXCDRLJOWr5ZeB5RGnabmixUEVdmz7OMiZQKJ5qLa9goWAoXg5Qggy+elRYYPq+ssjQWMQHIAebEsRaPY8cWtfqU6PmR6Olpa0oauBmKTGsHOHC/P89Z/fFoEKdrRUaCb4geXuUKhcpMaQ+mCFsFhkP3jB5lcJpPJ5W7TYijQqj7pgW2g1YyDQloyBDIlgoElE/4g5xDMVdISoUYpZ7oIsjF8xSWYyVRTIqjW6RAMTGZ4E/IrDFIiKAesEq8C50FGdB0SpJVRBBae+YNC6nMQXNFZpgj0EhxXSaahdmhQ5ZLFBwodVz8nm6+atgxz8bwEXz24NC1UbgcJKObpdFqSbpCvVqvO739QMc3LaqwHvc3Npm4uV7iMTzBspXgJ/ILTG1yaGdOJz2yesehVMcuUyZmxjROlhAIjyN9MnzBXSBSfVZFrmcKMO4hTu6JIsOpKIFF8ViH5ZQoHMQeh5Cd+gY/B3y4Rn6GbkQhjDkEu9tMgiGRQiE1wUPDyy+RixkDgigrBA2RFsfgsroXAQx9IMKaiU8on/g0d/TISHPj5ZXLkJIz0/pQK+J9gLLrEHPQKsNZqWaPgxpgfHBxEeX+NCsF7LNiGAoxrRavkDJw8vN63argErQQzF1keoEPwEbMyA3NWp4hr4PlLXICmOV2x/VzDfqaZDYrwHAoVgvqv2O9cvbVC0MuBE8ksXFSrEvIbP04HPpogK8pfLqD6QKJCsPwbnk5AVgTXCKACx0yCzpL7EzLFvPtRKEGOCsGt5yB3xVczuQBLOIcgEaTVPjsDf0a/XLVQG7dMjwTtwis+zHSNigIe/xPEwXSEUoiWIX9DmJjxizPwLUD/ovX8eP9bK3OJT4dKoVDBR6eV0h9N/F49VkbvTDBoQt3EHLNev05z2YcWpg9ObI59N6Vg21IlvxrGqsmQTr727AxroP0lktOc3UJ21TG8uOegtv7yMvYLJUZVjfQRrg0lmiskp+T5Cc1K5xtwBaFWvC+bPgccR4Kkk6/95g6Lij1wct3L2F2W2akRBBVqjZWfWl5LEmMOembg+NUZFNNQ2W2D+S8KC2/GDy8vz+McMjtAotYOpE/8/gla0YiojfeE2RV3UGzRSnPLZX1kV2dm53WM5j/o0+tufqh5ldRZXYpOy0kfiHzEEVpWRbuUMKH+b3blCemOuE+N35be8jl0nrs1TTMykvEk8tDJ4wv/rg3d2kXrPKojVCzUp7iIbX1PK+ejMq3ghtNzy1TIB7rKqAtQG4Hgzi1kV4EbtGBmJ09p8WUG08wkqdWSUXam9ckdD+tugg2zWGes7O7LaiOCGtUNBo+T2BUGGyapoNBF7GKNDZpr/UuooQR6BNSIS3s/4adW7DofXzU9CgrtPNa9hdonUMcYEN1rRajJtFbPIL7UMvEKvry30jtxLSixRUGBU0tBZNwWX6zTmJ6bd7/LtOvti09E15EgD3HvDoVv8kICxJpS8+62OrSngtbiGYbSxGKYuV0si+d9hd7xMxwJ3+SFBIiuItL78Bq1JgsMxjhjC/FgAYr8wPQUeluI3wm2KI4JEKktXEbSZai1lNbOSFim1A5eKhEUebtJKOORH/TwWw28bQOa0C3kGJFDQFoL6BScvDCs+D4zVdTBvIKTdfmm4ivTjx/gGF0FW3BEe8uw5AkltpgNTWnDcmnGMJPLmbc3nKesZv9v9ebSLPiq2JN7NALeFgtUV1Z4u5HimpgukjV1G+qi/HnsPHSuUDAvb28G1aqdEFp/Dm4OLHL+NZZMrfUI7y8Rh5Gg/Z37KLJBQfVpgNmhj0+TGnr2nE3IXnW3fEjBL7mZej6hPE4v4vxkuDe0GxTZ7GJmJ80jyYwv40Aiwaih+NOSH8D5AeBex7vCRXgAAtbAQjcO9eF10lqU3uQJ6/0wBKIlBZ1PhW/FhrMNCwfScIIEyg/jRSia4y+P2F0dhWjYUGB+V8cjmxP3KnLydDcVBKP0MBnXwunVJl9e8Fs8xyTJ0JYcFbEPYPmimw8gnSpePo9bcznWWq1n8pyGM7ItE1twH2ILdMjfYfGctq7jgY5enyYWSQ9Ls9YaT55eyU2NRo9sWhRlaFr3sNQCcO5tF5gA13lKV/nx/vmpNRmPWw7G4y+fHx49Rq+85znCEqBTqTp4U7/i1nbxDX35tJz8FEa97pvxum683N///vvv9/evQQeFd3ueplqAlK6E7+5G/hyzq5Q3ZpHY7mmqqvVjlX+MU+8JpCKA21h03DMCGVoY3PGnOAO3Z6eFifnmwhRLZ77jcUXM6hPnfygwXsFKGkKaJhTueBcV0FigkF6uDzVfw7Dcg3eW+/inAtTFEVJpJNUU0MHtnSTvX4QHUMbeVcD5cOoQ3TXETSuAB43hjl+iXWvCQW6UtE86bzaM4D3uev2c02R/Ly3Q0AOXCX6c5kZueOpEa10+GIc+dRMlhRuO2l0DSaVs1BuHTTkfwM7SQhltxi33CX55yLwZWLJJA4FbKIAoSKqiaVyv3+wVZU1T1LmvKlCxE25L5Ml4MrQl59i3COmeNVoOOzTOfqEECN1vL2pYT/IumVmgQ1Xq+ERP4ZAHAo0lNrsC5RSzuxdkZiEW3c8M/EfMp3mi0xRtv9VfkJ4k4ivsnvOPUWSj45mFQHFFcB5KO0qCk4+AxOE1h6MmuW8XyG5kU8ZLGkBYy+thti3fHW9TryhJx/hc6nCkGgBUHMUzJ05L1YJiMA7nbBoPhKC8JfY7HO14TBWQED/ccaTq4j3QGz1NXuD9GUBUtRGZ7HSAZzcbJr9T/CNKLegLo7Q3lNVQXRVlpXjWIaeRlVl4bkGZBen4wdpOiEXQO4dFTZVFryiB7fsV7e1x12Mk9JFPtQXOjaVLPWJmahtyJLxe3ztrFlUlr0oOVEW+Go4u/Fm4fu23TtKp+xsYZNKY36iXTxzppW7n4q7RbjTuLurBL/8qHQq+raTYqe8lUg0kWo2FlHDUOQ3wLUBB5nWfDEzTrFIsj+4hF3RuuACQGpeJ4yTEeWcCbyAsQyQoQcYW5E8wFsSJLiK3SW/VCIHevZ7rSgSNaP7EytgWv3Uf5R+Fcql+dzzqK1p+Xl4ItDNSSFi7iFjcdPk1rmYvHpwbBACp6Isy4eGlwppfVBCNEyUihJNBgI8rOW+9U5ubLr+Ik6qBrI0CKRhCXhCkTXsvkR/lYpj8gATO50qoc3h2vOniCz/BS1Slr4BBBDrzztgCsjKkdqZPigg+TB0Iiry3zpecrBD+c/ysvLC3syHJzwpQxzNaIEp5rX+8+/WElgugbYeewH6psCL1ThrepPcPAGMHaELzZK+x/cd4KzQDAwMDAwMDAwMDAwMDAwMDAwMDAwMDAwMDAwMDAwMDAwMDAwMl/B/RXidKJrt7+wAAAABJRU5ErkJggg==;" parent="1" vertex="1">
                    <mxGeometry x="848.2" y="669.9999999999999" width="73.6" height="73.6" as="geometry"/>
                </mxCell>
                <mxCell id="33" value="User Code Deployment" style="shape=image;verticalLabelPosition=bottom;labelBackgroundColor=default;verticalAlign=top;aspect=fixed;imageAspect=0;image=data:image/png,iVBORw0KGgoAAAANSUhEUgAAAOAAAADgCAMAAAAt85rTAAABLFBMVEX///9PQ901LY4DBhVNQd1QROAAAABIO9xMP91ENtw0LIpHOtw/MNtBM9tBMtszLIk8LNvw7/xTR97h3/k2LpLo5/rZ1/eGf+b5+P46MZ9NQdguJYvNyvS0sO/d2/ijnuxpX+EoHomvqu7FwvN7c+TRz/VZTt9kWuFEOr1KP9CQiujz8/2moeyAeOV2buODfOabluq9ufE9NKhtZOKNhuhYTd+VjulHPcdBN7MgFIcPAIRlW+C5tfDu7u+enqJiY2gfIS18fIDCwsXc3d5AQUivsLM1Nj9fYGZtbnReYFoTEzEsKlxBPYRJQrNWT8JYT8w6N3EdG0o3KMhZULmSjsOem8iEgLrDwtxlYKkqG6lJQ5pYUqVxbKwtIaK4ttmMh9KXk9OsqdBFPZmXlb7IHWJiAAANoklEQVR4nO1dC3faRha2yAhJSAIJCZunzcOA8dsGPyBONm122+6j7W43ttPa612n//8/rATSPCQhIcEI0jPf6UlORTTo4965r7kz2tpiYGBgYGBgYGBgYGBgYGBgYGBgYGBgYGBgYGBgYGBgYGBgYGBg2NrSjU7j+Hq/z2kWVKHYH56ctzuGXl73g60Cu42dvqCokiyIIuAsAABEUZQlVRF6p+d1fd0PuAxKjX1NkYQZMT8sprKqcdedr5Pk7t5bVRKDqRE0BVXevzta9+PGROm4qMkLsHM4ipI2vPiK5Lh9Iklz1HIuRFUY7a77wRdDp6/Nm3XhchS0YXfdDx+Nu15+YdX0i1HZdIoXopqc3pSi1txgikYzn0Q3vVLc2VBzUx5py0nPhaC1180lCBdFeSX0bKhvS+um44W+ry2vnQiidrxuRiS6orBCejbyp5sU3OytVHwziMrmmNMTZeX0LAB1Q9S0tELrQjJUdtbNzUZXXI1zCII0XDc7KzRLOP3srDf6lxGu1u0vjvNJ2ImqVjw9229a6XAESRGsl+GxlojeSce532ifRsTmomyskV87ifykJpH3GREhgiisT4Z3SeQnXXuHqRdDowQRrCv4rqsJ7Iuy5x/oaKiGMuylz83GdhL7KY8CxzoPDRWEtXgLHSTgB3pzir3XoTL0q3UK6CXx70pn3nA7oeGQdpcmtSlGSeIzUJw/4FXYDwaktJ1FO1F8LTXmj7gbarJEkO5ChpHEQVhJXphLOwzViTnWiRLKiSYgJ77FB3n3/k8fsh+++RYOGl6xmj99KeBaSsKPE8+wMT5ms9k3b95ksx9ciuehIgRyekq6nUxBOZlw8t/b/Gxkv5ldKIXX+1NU0rcJM0CJKAe+cwm+yb6fXTkNH1fdTolfO9QphxGERvSj/cd7xHCmpXfhmi+GOJlVIsIYhBF0Jfgx++e/WH99gAS/m142InyPGuJlVohELn4K+dwZ4oesZVzev/uIRDgV6VZE9A7ENPKKCFMQBsEtIk2JZbPffOeZhc2IyQ1/IZo4S17idf2ga16gAN9kf5h+cB01tka/GqwndBE2gDxTMaSakOD30w+Oo7Q/BRFeL1MEVS+mY7zzE5xJsB0VQNCfhUdJskAI8XQ2ip/g+8UIelwpBTSSBWkutFm0/b2XoWNFI1WUAyplgr3lVlmEw+ko39puAsH1gxHR6BQq3Zg7aRTqAuRnJcO//u3v/6j8+NPPP//804/mP//lCHBrJ9pCu1pOCUuZmOnz9a1R9PawKPI8DyxYf4l8z6kE96ODXCDRLJOWr5ZeB5RGnabmixUEVdmz7OMiZQKJ5qLa9goWAoXg5Qggy+elRYYPq+ssjQWMQHIAebEsRaPY8cWtfqU6PmR6Olpa0oauBmKTGsHOHC/P89Z/fFoEKdrRUaCb4geXuUKhcpMaQ+mCFsFhkP3jB5lcJpPJ5W7TYijQqj7pgW2g1YyDQloyBDIlgoElE/4g5xDMVdISoUYpZ7oIsjF8xSWYyVRTIqjW6RAMTGZ4E/IrDFIiKAesEq8C50FGdB0SpJVRBBae+YNC6nMQXNFZpgj0EhxXSaahdmhQ5ZLFBwodVz8nm6+atgxz8bwEXz24NC1UbgcJKObpdFqSbpCvVqvO739QMc3LaqwHvc3Npm4uV7iMTzBspXgJ/ILTG1yaGdOJz2yesehVMcuUyZmxjROlhAIjyN9MnzBXSBSfVZFrmcKMO4hTu6JIsOpKIFF8ViH5ZQoHMQeh5Cd+gY/B3y4Rn6GbkQhjDkEu9tMgiGRQiE1wUPDyy+RixkDgigrBA2RFsfgsroXAQx9IMKaiU8on/g0d/TISHPj5ZXLkJIz0/pQK+J9gLLrEHPQKsNZqWaPgxpgfHBxEeX+NCsF7LNiGAoxrRavkDJw8vN63argErQQzF1keoEPwEbMyA3NWp4hr4PlLXICmOV2x/VzDfqaZDYrwHAoVgvqv2O9cvbVC0MuBE8ksXFSrEvIbP04HPpogK8pfLqD6QKJCsPwbnk5AVgTXCKACx0yCzpL7EzLFvPtRKEGOCsGt5yB3xVczuQBLOIcgEaTVPjsDf0a/XLVQG7dMjwTtwis+zHSNigIe/xPEwXSEUoiWIX9DmJjxizPwLUD/ovX8eP9bK3OJT4dKoVDBR6eV0h9N/F49VkbvTDBoQt3EHLNev05z2YcWpg9ObI59N6Vg21IlvxrGqsmQTr727AxroP0lktOc3UJ21TG8uOegtv7yMvYLJUZVjfQRrg0lmiskp+T5Cc1K5xtwBaFWvC+bPgccR4Kkk6/95g6Lij1wct3L2F2W2akRBBVqjZWfWl5LEmMOembg+NUZFNNQ2W2D+S8KC2/GDy8vz+McMjtAotYOpE/8/gla0YiojfeE2RV3UGzRSnPLZX1kV2dm53WM5j/o0+tufqh5ldRZXYpOy0kfiHzEEVpWRbuUMKH+b3blCemOuE+N35be8jl0nrs1TTMykvEk8tDJ4wv/rg3d2kXrPKojVCzUp7iIbX1PK+ejMq3ghtNzy1TIB7rKqAtQG4Hgzi1kV4EbtGBmJ09p8WUG08wkqdWSUXam9ckdD+tugg2zWGes7O7LaiOCGtUNBo+T2BUGGyapoNBF7GKNDZpr/UuooQR6BNSIS3s/4adW7DofXzU9CgrtPNa9hdonUMcYEN1rRajJtFbPIL7UMvEKvry30jtxLSixRUGBU0tBZNwWX6zTmJ6bd7/LtOvti09E15EgD3HvDoVv8kICxJpS8+62OrSngtbiGYbSxGKYuV0si+d9hd7xMxwJ3+SFBIiuItL78Bq1JgsMxjhjC/FgAYr8wPQUeluI3wm2KI4JEKktXEbSZai1lNbOSFim1A5eKhEUebtJKOORH/TwWw28bQOa0C3kGJFDQFoL6BScvDCs+D4zVdTBvIKTdfmm4ivTjx/gGF0FW3BEe8uw5AkltpgNTWnDcmnGMJPLmbc3nKesZv9v9ebSLPiq2JN7NALeFgtUV1Z4u5HimpgukjV1G+qi/HnsPHSuUDAvb28G1aqdEFp/Dm4OLHL+NZZMrfUI7y8Rh5Gg/Z37KLJBQfVpgNmhj0+TGnr2nE3IXnW3fEjBL7mZej6hPE4v4vxkuDe0GxTZ7GJmJ80jyYwv40Aiwaih+NOSH8D5AeBex7vCRXgAAtbAQjcO9eF10lqU3uQJ6/0wBKIlBZ1PhW/FhrMNCwfScIIEyg/jRSia4y+P2F0dhWjYUGB+V8cjmxP3KnLydDcVBKP0MBnXwunVJl9e8Fs8xyTJ0JYcFbEPYPmimw8gnSpePo9bcznWWq1n8pyGM7ItE1twH2ILdMjfYfGctq7jgY5enyYWSQ9Ls9YaT55eyU2NRo9sWhRlaFr3sNQCcO5tF5gA13lKV/nx/vmpNRmPWw7G4y+fHx49Rq+85znCEqBTqTp4U7/i1nbxDX35tJz8FEa97pvxum683N///vvv9/evQQeFd3ueplqAlK6E7+5G/hyzq5Q3ZpHY7mmqqvVjlX+MU+8JpCKA21h03DMCGVoY3PGnOAO3Z6eFifnmwhRLZ77jcUXM6hPnfygwXsFKGkKaJhTueBcV0FigkF6uDzVfw7Dcg3eW+/inAtTFEVJpJNUU0MHtnSTvX4QHUMbeVcD5cOoQ3TXETSuAB43hjl+iXWvCQW6UtE86bzaM4D3uev2c02R/Ly3Q0AOXCX6c5kZueOpEa10+GIc+dRMlhRuO2l0DSaVs1BuHTTkfwM7SQhltxi33CX55yLwZWLJJA4FbKIAoSKqiaVyv3+wVZU1T1LmvKlCxE25L5Ml4MrQl59i3COmeNVoOOzTOfqEECN1vL2pYT/IumVmgQ1Xq+ERP4ZAHAo0lNrsC5RSzuxdkZiEW3c8M/EfMp3mi0xRtv9VfkJ4k4ivsnvOPUWSj45mFQHFFcB5KO0qCk4+AxOE1h6MmuW8XyG5kU8ZLGkBYy+thti3fHW9TryhJx/hc6nCkGgBUHMUzJ05L1YJiMA7nbBoPhKC8JfY7HO14TBWQED/ccaTq4j3QGz1NXuD9GUBUtRGZ7HSAZzcbJr9T/CNKLegLo7Q3lNVQXRVlpXjWIaeRlVl4bkGZBen4wdpOiEXQO4dFTZVFryiB7fsV7e1x12Mk9JFPtQXOjaVLPWJmahtyJLxe3ztrFlUlr0oOVEW+Go4u/Fm4fu23TtKp+xsYZNKY36iXTxzppW7n4q7RbjTuLurBL/8qHQq+raTYqe8lUg0kWo2FlHDUOQ3wLUBB5nWfDEzTrFIsj+4hF3RuuACQGpeJ4yTEeWcCbyAsQyQoQcYW5E8wFsSJLiK3SW/VCIHevZ7rSgSNaP7EytgWv3Uf5R+Fcql+dzzqK1p+Xl4ItDNSSFi7iFjcdPk1rmYvHpwbBACp6Isy4eGlwppfVBCNEyUihJNBgI8rOW+9U5ubLr+Ik6qBrI0CKRhCXhCkTXsvkR/lYpj8gATO50qoc3h2vOniCz/BS1Slr4BBBDrzztgCsjKkdqZPigg+TB0Iiry3zpecrBD+c/ysvLC3syHJzwpQxzNaIEp5rX+8+/WElgugbYeewH6psCL1ThrepPcPAGMHaELzZK+x/cd4KzQDAwMDAwMDAwMDAwMDAwMDAwMDAwMDAwMDAwMDAwMDAwMDAwMl/B/RXidKJrt7+wAAAABJRU5ErkJggg==;" parent="1" vertex="1">
                    <mxGeometry x="848.2" y="779.9999999999999" width="73.6" height="73.6" as="geometry"/>
                </mxCell>
                <mxCell id="34" value="Dagster&lt;div&gt;PostgreSQL&lt;/div&gt;" style="image;aspect=fixed;html=1;points=[];align=center;fontSize=12;image=img/lib/azure2/databases/Azure_Database_PostgreSQL_Server.svg;" parent="1" vertex="1">
                    <mxGeometry x="970" y="789.6" width="48" height="64" as="geometry"/>
                </mxCell>
                <mxCell id="51" style="edgeStyle=orthogonalEdgeStyle;html=1;dashed=1;" parent="1" target="37" edge="1">
                    <mxGeometry relative="1" as="geometry">
                        <mxPoint x="1449.9" y="659" as="sourcePoint"/>
                    </mxGeometry>
                </mxCell>
                <mxCell id="37" value="Storage Namespace" style="sketch=0;outlineConnect=0;html=1;whiteSpace=wrap;fontSize=12;fontStyle=0;shape=mxgraph.aws4.group;grIcon=mxgraph.aws4.group_vpc;strokeColor=#666666;fillColor=none;verticalAlign=top;align=left;spacingLeft=30;dashed=0;fontColor=#333333;" parent="1" vertex="1">
                    <mxGeometry x="1120" y="721" width="420" height="151" as="geometry"/>
                </mxCell>
                <mxCell id="66" style="edgeStyle=none;html=1;entryX=0;entryY=0.5;entryDx=0;entryDy=0;dashed=1;" parent="1" source="46" target="64" edge="1">
                    <mxGeometry relative="1" as="geometry"/>
                </mxCell>
                <mxCell id="46" value="FastAPI Server" style="shape=image;verticalLabelPosition=bottom;labelBackgroundColor=default;verticalAlign=top;aspect=fixed;imageAspect=0;image=data:image/png,iVBORw0KGgoAAAANSUhEUgAAAMgAAADICAYAAACtWK6eAAAdQklEQVR4nOy9eVhUV7r2fRdUlQqlYRYES1FARgGNoBGTYOcYTUwn2mmNQ9IOJ9pXJ3Yn0Yx9vpPOlx7y5k1nOOmko/GocYhRVDRqFBRBRRRUQGWSmQJkkgKhKHXvGt6LUhwZatxr76r1+ytF7drrjrXvWutZw/OIQbEdvt6j4erqBT+fKLi6DoKnWwQAZ/j6+EEq8btz3ciAYRDpvaGHK0QQQY8bgOgqmppbwTA9V3WiobkMLAuousqhbO9Aa1sxutTtUNQXkvpftHdEpAXYBXL/cMgDouDrHQlf7xB4uAfB1yeKUw0qdSUamyrQ2HwZivpLaGi+gNr6C2BYLac67AxqEFPxcPeEfMRjCAqcDLl/HIJGxwOiwaRl9UlD8zlUVOWgvOo0aq5koam5lrQkIUENMhBSySCEhzyJoMAnEB3xLDzdw0hLsohOlQLFZUdRWJqK4ssZUKmVpCXxGWqQ3vBw90J0+AsID5mNiJDpvO4hLKWm7iQuFKYir2A7mloUpOXwDWqQHjzcRiAudhFiIuZCHjCRtBwiKNtqkJP3I/ILdxniGIqDG0QiGYz42OfwWNxSjA54irQcXtHadgGZORuQmb0DXY47DHNMg/h6h2B6wgpDjyGVepKWw3OuI78gGWdy1+FiURZpMVzjWAaJjngcv0p4H0GBvyItRZA0Nl/Eiex/Iitnp6NMH9u/QVxcgMiQhXh6+mrDgh3FclRdjTh87DPkFqxH+zU1aTm2xH4NIpVIkRC3EjMT34VM5kNajl3CMF3IzF6Pw+l/g0rdTlqOLbA/g3T3GPGxL2NW4n9DJhtFWo5DwDDXcDLnU6Sd/MbeehT7MsikmGcwa/on8PUJJS3FIVF1XcXhY/8/TuZ8Z9gzZgfYh0F8vcdhwdyvERz4JGkpFEMwX4Jd+/+AorJM0lIsRdgGkUpc8OunP8D0hD8BGERaDuUB8gt2YNeBNVC2N5GWYi7CNcjUSb/B8zP/BzJXb9JSKP3AMGqkZX6ClPT/K8SpYeEZxN3NC4vmrEf4uGdIS6GYQGNzATbtWARFfTFpKabgTFqAScTFvIDXlx2A3/Bo0lIoJiJz9UFC/BI4OQGlFYKJTYTRg7i6umDhnO8QG/kSaSkUK6Coy8LGHa8IYfcw/w0ydvSjWDp/Ozzc6ZqGPcEwXdi2ZznO5u8hLaU/+D3Empn4Fpa+tB1DhriRlkKxMs7OUsRGvggvjxEoLk2HVsfLhRN+9iBSiQtWLN6E8HEvkJZC4YCG5lx8s2EelO28G3LxzyC+3nK8vuwgPNzHkZZC4RCGacXaLb9FMb8WF/k1xAoLTsAbr6ZDJvMnLYXCMc7OLoifsAjq602ors0lLacH/hhk6qQF+M9FOw3/UBRHxQkR457F4EFiFJdlkBYD3hhkwQsfYvaMz3mjh0KWMaOmIWRsOHIvHiIdvJN/IBfO+RbTJr9BWgaFZ3i6hyMoMAHnLyaRNAm5IF0qkeD15f9G0OhXiGmg8J+rbafxxdq5aGtvJdE8GYNIJSK8tvQAgsf8B5H2KcJC2VaKz7+bAuW1Tq6b5n6IZTDHsv9F8Jg5nLdNESZDhngiOjIR+YVJuHGD4bJpbnuQ7mHVa8v2IjiQ9hwU02ltq8AXax+Hsr2FqyaduGrIQHfMQc1BMRdP97F4c2UyXF04WwrgziAL53xLA3KKxXi6x2HlywcM25E4gJsYZOELHyKBTuVSrISHuxxBo6Nx+vxPtm7K9gaZGrcAs//jc5u3Q3EsPNyD8cjQYbhUcsSWzdjWIGHBCVi+aCdEPFiQpNgf8oDJ0GhaUFF9zlZN2O7BHe4tN2w8FNO9VRQbEjp2JuobTqOxpcoWt7dNkN4dQK1adhBS6TCb3J9CuYNIhCUv7cJw79G2uLttDPLq4k30PAeFM6RSV6xa9rMtZrasb5Cnn3wLEfQkIIVjPNxDsWT+Omvf1roxiCHBwkvbrXpPCsVYfH0ioL6uQHXtBWvd0no9iMzFxZB9hEIhyfNPf4WR/lYb3lvPIAvmfkdT81CII5W6YOm8bZBKrFKZ2DpDrEkxL2DW9I+sci8KxVJksuGQSEQoLku39FaWG8TDzdswpUvPklP4xJhRCaiq+QUtygZLbmP5EGvBnO9ppVgKL1k4d6ulU7+W9SBT417Er6a9Z9E9KBRbMWSIB2QuzrhUcszcW5jfg3Q78/kZX5n9eQqFCxImrzFUIDMT8w3y6xl/hkxGi9dQ+I4IC+d8Ye6HzRtidTtyyUv/C0BsbsMUCmd4uI9By9VC1DeaXLzHvAd84ZyvaU1Ay4n1Go5/Pz7D4X5kNDodPj6fpU2prdJz1uiLs79EfuFhMKxJZapN/3LiYp5B0BhaTdYK/ClqovMEb1/+JRC3IWXtSixOO6DJu9rEnTlgWBvxxXMz3sLug3815WOmxSAuLsDMxE9M1UZ5GK/BQ/BScDi3STMIs64oXzdp9w8s5+boYVr8Gvh4e5nyEdO+oPjYl+E7nBbptwIrwmOcnESO0Xlcu3kT81L3al4/eUSr1mjICZFKXTAr8c+mfMR4g0glUsxM/NAcXZT7GeIsxuuRExziGPLRumrdhKSN7N6qMjK9xoPEx76K4d5G7xk03iAJcSsxVCY3VxflLktCo5y8htj3zhw1y+IPJ1K0zxxM0tZ2cZ4xtB9EUsxK/IuxVxtnkFuxx7uWyKLc5TU77z0KlC36R3dtYtcXX9SR1tIrcbELETDCqFjEOINEhiyETOZjqS4KMCcwWBTi5kFahs34LD9bO3XPVk15RztpKf0gEmFyrFFbpIwzyNOJqy2VRLnFqqiJdjlzVavqwKwDOzUfZJ/QXdcSDMSNJSF+OWQuA1ZPHvjLejTmcfgNj7KWLkcmzscPCX4j7c4gyZWluglJm9i0+hp+BOLGIJW6IjFhyUCXDfxlPR73gbU0OTpvjn/UrmIPFctg8dH9mvlH9mmvMTdJyzGdaXFvQyLpd7G8f4P4eocgaMx0a+tyRIIfccdvxobaTe9x4kqtLmbnRnZnRYlweo0Hkcm8MXXSi/1d0v8XlpiwwtqaHJU/RMTahTkYrRb/nXNS+9T+n7QKVQdpOZYTP6HfZ7zv7kUqGYz42EW20ORouIjFWBo6XvDDq+qOa5iXupfNb20mLcV6jApIgHxEKBRXSnp7u+9ftUmxz9GjtNZhWeh4JxeJhLQMi9hyuUAXk7TBvszRQ0Lc7/p6q2+DTJ201FZ6HAkRgNXRcYLtPRq6VJj9yy7N8oxDZPdR2ZK4ib+DRNKrF3o3iIfbCIwe+ZStdTkCLwWFifxlQ0nLMIufq8oM+6hSuTy3QQKpxAsRIc/09lbvBomLWWxrTY7CqqiJgus91CyL1VnHtC+m7tW23rxBWg43TOr9me89SI+JpCWarUCCr7/oUR8/Qe1pv9jarF98dL+mpF1JWgq3RIx7GlIJwLD3/fnhHsTDzQvygIkcSrNb3hg/SVBTu5/mndEmJG9zPHPg9sp6WPCMB//88BcYE0FLF1iBUDcP/DowWBAGqem8hil7Nmv+K+ek7oYQ9lHZipjIh579h7/A8JDZXOmxZ4Qyc7WzvNiwIn6+hdAxWD4R8fCzf79BpJLBCA+hW0ssxGvwEMwLCuN179HJMFhwZJ9mcdoBbZeGJS2HH8hkvggaHXvvn+7/EsNDngBEVkkb78j8MWqi0xAxf7P5ZNQrDIt+uytLaa/xIOEhM+99eb9BgkbTdD4W4iwS4T/Donk5vNLp9fj43CntjAM7tLUqPh2D5RFjRz9x78v7f+ZiIntdLKEYz8LgcBEfz5sXKa/qF6ft1xQor5KWwm+CxyTC1cUFXWpDgrm7PYiHmyc83MNIarMHVkfH8W5s9eWFs9rHkrdQcxiHCEGjp/a8uGsQuf9jpBTZC9NHyEXhHiblJbMpLdfVePZgkuadMxk6u91HZQtGBdzxwt1fu6DRk0npsRfemzCFNzNXhxSVuhUZh7RN101KRUvB/V64axC5fxwpPfZAuLsnnvSXEzeImmXxQfZx7beFefxMuSME5AF3vHDXIGPHxJPSYw+8ExNPfObqdGO97uW0A/Zx0o8kUulQjBwRjtorRbd+8eQjwiECXf8wEz8XV+KJqP9+Pkv7xL4fqTmsxagAw4LhrR5kZABN62MBb0VPIpaIuqbzGn6XdlCT1VRPF/2sidx/PIBttwzi6x1JWo9QkYklxM6b/1RWpPv9iRT7PelHkuG3PHHbID5mFzl0dJaGjncaJuW22FYXy2JZ+kFNMl8yptsjfj4huGMQv+FjSesRKu/Gchucp9ZW6VYeP6yt71Jx2azjIZONgtsjt7PKebjRGMQM5gQGi3xcXDlpS82y+OjcKe0XF8/S6VuuGCaLEsPXezRpHUKFq0TUBcoWwzHYorZWLpqj9DDce7QYMlf+7I0QEFwlov6uME/37ukMrSAyptsbMlcvMXx96PDKDGxdBKdZ3YUVxw9rflFU0kCcFH4+UWK4utAFQhMJfsQdC2y4MLi78rJuRcZhbSfL2KoJijG4ugwSw9M9grQOoWGrRNTdgXh3ryHojOn2hKd7pNjkUtAOjsegwTZZGDzf0qBffPSApoLXpcscDicxRvr7k1YhJJaGRlk1EbVer8ffc09rPz6fpdPpacfBK+QjR4ghwnDSOoTCYGexIZ2PtXZddWlYvH/muDa76Yo+xtOH1xkYuzSs/rLDJZTT+/LueCifWRoaKfJzlVnlXjpD3RAJvkp4ivg2+YFIra3SrTh+WEtaBwmoQUxgVdREq/x7aXQ6CGEwpWZZ/OVcpvbLi+ccdvW+OwYZRlqEEJjmFyAKc7dsTbX7KdPqhPGsXW5vxbzUfWyxg6/ed8cg3qRFCIF3Y+Mtmu3rNoYwrAH8uyBP9352Bt1Gf2uIJeJmt52ACXXzwLOjgsw2CCuQXqNJ3YUVGYc1h2rp6n0P4ttVwij98P6EKWYF0t1RrU4g5thVUWIIxFUszdN7L2JAfx0QWWdqxg7xGjwE84NMr28upED8zVNp2o2XLwnDyRwjhh6tEIEapA/ejolzGuRs/OSVkALxc80N+sVpBzSVdPW+T5zQ1OzY0xT94CIWY5kJ20q6jSEEc+j1evz13Cnt1OSt1BwDIH6wJhvlLstDxzsZk4haf3tIJQQUnR1YePRnTU5zgxBGgMShC4X9sDpm4CpRQpq+3VB8UfdWVhqdvjWB7hiEZhrrhYXBYaJRQx/p9xqhBOJXb6ixMiNFs7+mXAhyeYS+wwmNzeWkZfCRVZF9nzfX3V7bEMLTdlhRqZuYtIml5jCDhuZyMei890NEeXhhsq9/rwYRSq9xQ6PBX89naT/NzxbKCJB/sCzE6OwqI62Db7zdS64rIU3flrS1YnHafvZiawtpKcKms6tUjLZ2WqzuHkbKhuLlkMj7eg8hBeL/yD2t/dv5LB0jEDPzmrZ2lRjKtmLSOvjEm+Mn3TGHkKZv61WdePnYAU1mQ50QRoDCoLWtWIxOdRtpHXxhqESKV8NvVagV0j6qvVWlupXHU7RtN2+QlmJfdKnbxKitLyKtgy8sD4tykkmkggnE1SyLP2Ye1WwuLRCCXOGhqC+6tVDYqarAUJnDJ7BeEx3vLJSt6WebGvSL0vZrqjuvkZZiv9xgKm4ZpLHZ4Q2yMCiMs0TUltDdu318/pT2H7lnhOFkoXKTaUFzy7VbAWlTy2XSekjzVgz/6ps/SFm7ElOTt2qoOTigsbkUd/ZiKeoLSOshyTS/ANF4Tx/SMvrl+6J83dun0+k+Kq6oveWJWwZpaL5AWg9J3o2ZzNvskteYm1hy7KDmYE0FDcS5pKE5H3cMUlufT1oPKeSyoZghD+SlQdLqqg3HYGtVdC2XcxT1hk7j1oPBsDo0NJ0jrYkE9y4M8gU1y+K1E6naWQeTqDnIoIWi3uCHu4FpRXU2/IY/SlIV19gqEbUl5LY0Go7Bll+j67fEUNTl9GzivfvrWV51hqAkIiwLHW/VRNSW8ll+tjYheRs1B2nKqk73/OfdHqSmPouUHhJInZzxZvQkXvQetaoOrDx+WHO0roYG4nygtqEXgzS11KJTpcBQmZyULi6ZN3acyNuI8+a2Jrmy1FDWuZ25SVoKpYeyylM9/3l/gFpcepSEHhK8EzuZ6MKgimXw25Rkzfwj+6g5+ERjUx7a2q/2vLzfIIWlKSQ0cc2skYGiUHdPYu2fvFKri9m5kd1XTY/B8o6i0tR7X97/K1pcepxrPSRYE2NZImpzYbRawzHYT/LoVhHeUlSace/L+w2iUitRU3cCowIe51oXV0R7+mDaCNvXN3+Q0nYlFh/dz+a3NnPdNMVYGKYD5dXp9/7p4QflQsERLjVxzRvjH+V85mpraYEubvcP1Bx8p+hymmHR/B4eNkh+0XYuNXGJ1+AhWBQSwVnv0dClwnO/7NIsSz9ENxkKgbzCh579h2dyGpsVULbVwMN9FFe6uOJPUX3nurI2+6vLdCsyDmtb6TFYgaDXPxigo88a6Tl5P3IhiUtcxGIsD4u2+fBKzbL4/fHD2t+k7KXmEBLd5uhSqx/8c+8GyStM4kITl7wSEikyJhG1JVxqbdZP3rOZ3VBCa20Ijj6e+d4NUltfgKtKu9oC/1rkBJsuDH6ad0Y7NXmbpsThaonbAXq9GvkFe3p7q+8xeVbORltq4pL5Y0NF42y0MFjZ0Y4pe7Zo/ivnpO6GlgbigiS/MAldalVvb/VtkMycHQCu21IXV/whcoJNgvOkihLdhKSN7PmWRroiLmQys3/o662+HxyVWom8gmRbaeKKx4b7i6b0kYjaXDpZBguO7NMsOrqfTt8KHWVbCYrLMvt6u/8HJz1znS00cclrVu49MuoVupidG9jdlaW017AHjvX/jPf/8JRXZ6GxSbAJHcYOc8NvzahQ2xt6vR7/X/YJ7YwDO+gxWHuBYbqQk7e5v0sGfnhOZH9uTU1c8la0dc6bFymv6ifu2sT+H1prw77IvbQeKnW/FdYGfoCyzu6AStVgTV1cIBNLsCg4wuKFwS8vnNU+lrxFU6C8ah1hFL6gR2rGVwNdNLBBGFaHw+n/tJYqrrD0vPmVrk48ezBJ886ZDB0NxO2QnNztaGypG+gy44YgmTnrDeM1AfGnaPN37R5SVOomJG1ij9RV00DcXjmT+4kxlxlnEIZVIzN7vaWauGJBUJhopGyYyZ9TsyzeyDyqff7Qbq2S7qOyX8orT6KkvMSYS40PYg+n/w0MI4hc+2vMSER9urFeF71zA/ttYR4NxO2dn1PfNvZS4w2iUrfjZPan5mriiml+AaIoExNR/+VspvaJfT9qa1S0ZLzdU1a5G+XVucZebto06P7Ub6BS8Xo6591Y4xNR13Rew5P7ftT8Pfc07TUchX0pH5lyuWkG6Y5FDqWb1ACXhLp5YMZI4xJR/1RWpIveuZHNaqyngbijkJ27EZU1RsUePZi+kJaZsxaNTbysjPumEQuDHcxNzE/dp3nl2EGtWsNyI4xCHobpws+pfzb1Y6YbhGWBXQdeM/lzNsZ78BAsDul/YTC1tkoXtv17NrmK7qNyOA4d+/DehHDGYt5WjKKyTORd2mHWZ23E6pg4J4lT7/5QsyzeO52hnf3LLm3LDbvYwU8xhe4RT/qpb8z5qPl7lXYfXAOGeegMLwmkTs5YMi6qV3cUKlv0jyVvYT+/eJYG4o7KrgOrwLBacz5qvkGU7U1Iy/yH2Z+3IvPGjhN5DB7y0N//mZ+jfSx5q6aorZWILgoPKLqcjKKyE+Z+3LLdrinpn6Gx6ZJF97ACa2Li71sYbFZ34YVDuzXvZx/XXaf7qBwXhrmGH5P/aMktLDNId7e1ccdiw6F3QsySjxGFe3jdeb278rIu7Kf17C+KShqIOzpJB1YYRjoWYHmeqI7Oq3B2BoIDEy2+lxmsffxp51FDHxF1sQyWp/+i+ejcKR2jM2u4SbEnCi/vxe6DH1t6G+scR92f+gkUdZxXqIq5nYj6fEujPnrnRnZHRQntNSiAqqseP+z4vTVuJbLGTQz4esvx3qoLkEpdrXbPAdiY+Ixzdec1/V/PZ+m0euoNym3WbX4W+UVWScJuvVScKvU1KNtKERP5W6vdsx+cRSLUdXXqfywrptag3OXYyU9xLMtqRzOsm6u2vrEEXh5+CPCbYNX79oLecOqv11xfFEdFUXcG67a9bM1bWj+h2vbkNWhoMno7MYViFRimBeu2Lrb2ba1vEIZV45uN88AwdHWOwhV6rN2yAMp2hbVvbJt6Gd1C123pjkXoKh3F9uw7/BaKzV8t7w/b1ctoUSqgvt6EiHHP2qwNCiU7dz12H/yLrW5v24Iy1bW5GDzIGWNGTbNpOxTHpLwqBd9ttnrccS+2L2hZXJaBkLHh8HQPt3lbFMehta0Qn307C1qdTU+9cVPxNffiIQQFJsDDXc5JexT7RtmmwBdrZ0Gltnl+BG6KWjKsGv/aMButSs63o1DsjJtMHf61abotZqx6g7uC+t0m+WLdXMNqO4ViDgzTgW82PI/GJk7MAc6GWD1cv3Ed+YWbER2RCJch/py2TRE2DHMFX29IQEX1ZS6btd5mRVNwdxuK1Suz4eEeRKR9irDo7jm+3hCPiuoKrpvmtgfp4cYNBvmFOxAdMY32JJR+YZg6fL1hJiqqTcpnZS3IGASG4ZYaZy/8hMCRdHaL0jvKNgX+uTYRtVfKSEkgZxAYfh1YnL+YhLGB4+HpHkxUC4VftLYVGqZyryo5C8h7g6xButHqWJw5/xOGDR2KUQGTScuh8ICyqhTDIiAH6xwDQd4gPRSUHIFG24LQoJnEJg8o5MnOXW/YPmLjFXJj4d+DGB0xHUvn74JUKiMthcIher0OP6esRkqGWRkQbQX/DALD+fbReH3ZPni4h5GWQuEAhmkxnOew0ZZ1S+DPEOteVOp2ZOZshq/PGPj6RJCWQ7Ehiroz+Hzts6i9cpG0lN7gp0FwO3g/f3EPrl+vQVDgU3B2Nr9kLYWfpJ38FN9vexnXb/C2tB8/h1gPMtJ/HJbO3wpfn2jSUihWQNV1Bdv2vIoLhVZJzWNL+NuD3EtHZytOn9sCiRQYI6eHr4RM4eW9+J/vn0PtlULSUoxBGD3IvYQFT8SiuVvh4T6WtBSKCTBMB3YdWIHMnD2kpZiCMHqQe7mqbEBmzka4ujpD7j8FIpHwTO5oFF1Oxr82PofLFedISzEVYT9cvt4hWDj3S0MQT+Efjc3F2LV/lSX1OUgjbIP0EBczFy8+9wVkrn6kpVBuF8w8lP4h0jO/MbeyE1+wD4N0I5W44LkZb2Ja/NuQSl1Iy3FYsvM2Yv/hP0N5jfg+KmtgPwbpQebihd/M/gDxE1Z024a0HIehvHI39qZ8ZGodcr5jfwbpwddbjpmJHyEudiFAA3mbUV51EvtS3kFF9XnSUmyB/T847m5e+FXCe0iIW85l7RI7R4+c3O04k/cJSsrsqsd4EPs3SA8yFzfMSFyCyRPehszVm7QcQdIdfOcWrEdK+ldoaqkjLYcLHMcgPUglYsREvIjp01ZA7p9AWo4gaG0rQXrmOuTkbYZK3UFaDpc4nkHuRe4fiqlxryAudgkGSb1Iy+EXIjXyLyXhZM4PKC7NJK2GFI5tkB6kEieEh8xCXOxihIfMdNxYRa9HUWkq8gqTcKEgGSp1J2lFpKEGeRCpBAgfNwPR4S8gYtxsyFx9SUuyKQzTgaLSNOQXbkfR5VSo1MRq3vMRapCBGDs6FhEhMxEU+ASCDLXghf9v1ticj8LSVBSXZqC86hgYVkdaEl8R/pfNJa4uLggeMxXyEVMQFDgFcv84SKVDScsaAC0UdWdRXn0aivoslFWdQlu7XaxycwE1iKXI/cMh94/FSP/xhuPBfj7jIHMdRUTLTeYqGptLUVt/CQ0tF1Bbl4+a+nNgeZEgRJBQg9gCqUQCX58oQ/IJV1cv+PlEwdV1EDzdIgxHDHx9/CCVmrixUt+JhuYyw8OuUpdD2dYBZXsxVF3tUNQXorOrAm3tvD26KlT+XwAAAP//IXpGH9y2S5UAAAAASUVORK5CYII=;" parent="1" vertex="1">
                    <mxGeometry x="897.2" y="382" width="60" height="60" as="geometry"/>
                </mxCell>
                <mxCell id="67" style="edgeStyle=orthogonalEdgeStyle;html=1;entryX=0;entryY=0.5;entryDx=0;entryDy=0;dashed=1;" parent="1" source="48" target="64" edge="1">
                    <mxGeometry relative="1" as="geometry">
                        <Array as="points">
                            <mxPoint x="1080" y="710"/>
                            <mxPoint x="1080" y="413"/>
                        </Array>
                    </mxGeometry>
                </mxCell>
                <mxCell id="72" style="edgeStyle=orthogonalEdgeStyle;html=1;entryX=0;entryY=0.5;entryDx=0;entryDy=0;dashed=1;" parent="1" target="68" edge="1">
                    <mxGeometry relative="1" as="geometry">
                        <mxPoint x="1030" y="710" as="sourcePoint"/>
                    </mxGeometry>
                </mxCell>
                <mxCell id="48" value="Dagster Workers" style="shape=image;verticalLabelPosition=bottom;labelBackgroundColor=default;verticalAlign=top;aspect=fixed;imageAspect=0;image=data:image/png,iVBORw0KGgoAAAANSUhEUgAAAOAAAADgCAMAAAAt85rTAAABLFBMVEX///9PQ901LY4DBhVNQd1QROAAAABIO9xMP91ENtw0LIpHOtw/MNtBM9tBMtszLIk8LNvw7/xTR97h3/k2LpLo5/rZ1/eGf+b5+P46MZ9NQdguJYvNyvS0sO/d2/ijnuxpX+EoHomvqu7FwvN7c+TRz/VZTt9kWuFEOr1KP9CQiujz8/2moeyAeOV2buODfOabluq9ufE9NKhtZOKNhuhYTd+VjulHPcdBN7MgFIcPAIRlW+C5tfDu7u+enqJiY2gfIS18fIDCwsXc3d5AQUivsLM1Nj9fYGZtbnReYFoTEzEsKlxBPYRJQrNWT8JYT8w6N3EdG0o3KMhZULmSjsOem8iEgLrDwtxlYKkqG6lJQ5pYUqVxbKwtIaK4ttmMh9KXk9OsqdBFPZmXlb7IHWJiAAANoklEQVR4nO1dC3faRha2yAhJSAIJCZunzcOA8dsGPyBONm122+6j7W43ttPa612n//8/rATSPCQhIcEI0jPf6UlORTTo4965r7kz2tpiYGBgYGBgYGBgYGBgYGBgYGBgYGBgYGBgYGBgYGBgYGBgYGBg2NrSjU7j+Hq/z2kWVKHYH56ctzuGXl73g60Cu42dvqCokiyIIuAsAABEUZQlVRF6p+d1fd0PuAxKjX1NkYQZMT8sprKqcdedr5Pk7t5bVRKDqRE0BVXevzta9+PGROm4qMkLsHM4ipI2vPiK5Lh9Iklz1HIuRFUY7a77wRdDp6/Nm3XhchS0YXfdDx+Nu15+YdX0i1HZdIoXopqc3pSi1txgikYzn0Q3vVLc2VBzUx5py0nPhaC1180lCBdFeSX0bKhvS+um44W+ry2vnQiidrxuRiS6orBCejbyp5sU3OytVHwziMrmmNMTZeX0LAB1Q9S0tELrQjJUdtbNzUZXXI1zCII0XDc7KzRLOP3srDf6lxGu1u0vjvNJ2ImqVjw9229a6XAESRGsl+GxlojeSce532ifRsTmomyskV87ifykJpH3GREhgiisT4Z3SeQnXXuHqRdDowQRrCv4rqsJ7Iuy5x/oaKiGMuylz83GdhL7KY8CxzoPDRWEtXgLHSTgB3pzir3XoTL0q3UK6CXx70pn3nA7oeGQdpcmtSlGSeIzUJw/4FXYDwaktJ1FO1F8LTXmj7gbarJEkO5ChpHEQVhJXphLOwzViTnWiRLKiSYgJ77FB3n3/k8fsh+++RYOGl6xmj99KeBaSsKPE8+wMT5ms9k3b95ksx9ciuehIgRyekq6nUxBOZlw8t/b/Gxkv5ldKIXX+1NU0rcJM0CJKAe+cwm+yb6fXTkNH1fdTolfO9QphxGERvSj/cd7xHCmpXfhmi+GOJlVIsIYhBF0Jfgx++e/WH99gAS/m142InyPGuJlVohELn4K+dwZ4oesZVzev/uIRDgV6VZE9A7ENPKKCFMQBsEtIk2JZbPffOeZhc2IyQ1/IZo4S17idf2ga16gAN9kf5h+cB01tka/GqwndBE2gDxTMaSakOD30w+Oo7Q/BRFeL1MEVS+mY7zzE5xJsB0VQNCfhUdJskAI8XQ2ip/g+8UIelwpBTSSBWkutFm0/b2XoWNFI1WUAyplgr3lVlmEw+ko39puAsH1gxHR6BQq3Zg7aRTqAuRnJcO//u3v/6j8+NPPP//804/mP//lCHBrJ9pCu1pOCUuZmOnz9a1R9PawKPI8DyxYf4l8z6kE96ODXCDRLJOWr5ZeB5RGnabmixUEVdmz7OMiZQKJ5qLa9goWAoXg5Qggy+elRYYPq+ssjQWMQHIAebEsRaPY8cWtfqU6PmR6Olpa0oauBmKTGsHOHC/P89Z/fFoEKdrRUaCb4geXuUKhcpMaQ+mCFsFhkP3jB5lcJpPJ5W7TYijQqj7pgW2g1YyDQloyBDIlgoElE/4g5xDMVdISoUYpZ7oIsjF8xSWYyVRTIqjW6RAMTGZ4E/IrDFIiKAesEq8C50FGdB0SpJVRBBae+YNC6nMQXNFZpgj0EhxXSaahdmhQ5ZLFBwodVz8nm6+atgxz8bwEXz24NC1UbgcJKObpdFqSbpCvVqvO739QMc3LaqwHvc3Npm4uV7iMTzBspXgJ/ILTG1yaGdOJz2yesehVMcuUyZmxjROlhAIjyN9MnzBXSBSfVZFrmcKMO4hTu6JIsOpKIFF8ViH5ZQoHMQeh5Cd+gY/B3y4Rn6GbkQhjDkEu9tMgiGRQiE1wUPDyy+RixkDgigrBA2RFsfgsroXAQx9IMKaiU8on/g0d/TISHPj5ZXLkJIz0/pQK+J9gLLrEHPQKsNZqWaPgxpgfHBxEeX+NCsF7LNiGAoxrRavkDJw8vN63argErQQzF1keoEPwEbMyA3NWp4hr4PlLXICmOV2x/VzDfqaZDYrwHAoVgvqv2O9cvbVC0MuBE8ksXFSrEvIbP04HPpogK8pfLqD6QKJCsPwbnk5AVgTXCKACx0yCzpL7EzLFvPtRKEGOCsGt5yB3xVczuQBLOIcgEaTVPjsDf0a/XLVQG7dMjwTtwis+zHSNigIe/xPEwXSEUoiWIX9DmJjxizPwLUD/ovX8eP9bK3OJT4dKoVDBR6eV0h9N/F49VkbvTDBoQt3EHLNev05z2YcWpg9ObI59N6Vg21IlvxrGqsmQTr727AxroP0lktOc3UJ21TG8uOegtv7yMvYLJUZVjfQRrg0lmiskp+T5Cc1K5xtwBaFWvC+bPgccR4Kkk6/95g6Lij1wct3L2F2W2akRBBVqjZWfWl5LEmMOembg+NUZFNNQ2W2D+S8KC2/GDy8vz+McMjtAotYOpE/8/gla0YiojfeE2RV3UGzRSnPLZX1kV2dm53WM5j/o0+tufqh5ldRZXYpOy0kfiHzEEVpWRbuUMKH+b3blCemOuE+N35be8jl0nrs1TTMykvEk8tDJ4wv/rg3d2kXrPKojVCzUp7iIbX1PK+ejMq3ghtNzy1TIB7rKqAtQG4Hgzi1kV4EbtGBmJ09p8WUG08wkqdWSUXam9ckdD+tugg2zWGes7O7LaiOCGtUNBo+T2BUGGyapoNBF7GKNDZpr/UuooQR6BNSIS3s/4adW7DofXzU9CgrtPNa9hdonUMcYEN1rRajJtFbPIL7UMvEKvry30jtxLSixRUGBU0tBZNwWX6zTmJ6bd7/LtOvti09E15EgD3HvDoVv8kICxJpS8+62OrSngtbiGYbSxGKYuV0si+d9hd7xMxwJ3+SFBIiuItL78Bq1JgsMxjhjC/FgAYr8wPQUeluI3wm2KI4JEKktXEbSZai1lNbOSFim1A5eKhEUebtJKOORH/TwWw28bQOa0C3kGJFDQFoL6BScvDCs+D4zVdTBvIKTdfmm4ivTjx/gGF0FW3BEe8uw5AkltpgNTWnDcmnGMJPLmbc3nKesZv9v9ebSLPiq2JN7NALeFgtUV1Z4u5HimpgukjV1G+qi/HnsPHSuUDAvb28G1aqdEFp/Dm4OLHL+NZZMrfUI7y8Rh5Gg/Z37KLJBQfVpgNmhj0+TGnr2nE3IXnW3fEjBL7mZej6hPE4v4vxkuDe0GxTZ7GJmJ80jyYwv40Aiwaih+NOSH8D5AeBex7vCRXgAAtbAQjcO9eF10lqU3uQJ6/0wBKIlBZ1PhW/FhrMNCwfScIIEyg/jRSia4y+P2F0dhWjYUGB+V8cjmxP3KnLydDcVBKP0MBnXwunVJl9e8Fs8xyTJ0JYcFbEPYPmimw8gnSpePo9bcznWWq1n8pyGM7ItE1twH2ILdMjfYfGctq7jgY5enyYWSQ9Ls9YaT55eyU2NRo9sWhRlaFr3sNQCcO5tF5gA13lKV/nx/vmpNRmPWw7G4y+fHx49Rq+85znCEqBTqTp4U7/i1nbxDX35tJz8FEa97pvxum683N///vvv9/evQQeFd3ueplqAlK6E7+5G/hyzq5Q3ZpHY7mmqqvVjlX+MU+8JpCKA21h03DMCGVoY3PGnOAO3Z6eFifnmwhRLZ77jcUXM6hPnfygwXsFKGkKaJhTueBcV0FigkF6uDzVfw7Dcg3eW+/inAtTFEVJpJNUU0MHtnSTvX4QHUMbeVcD5cOoQ3TXETSuAB43hjl+iXWvCQW6UtE86bzaM4D3uev2c02R/Ly3Q0AOXCX6c5kZueOpEa10+GIc+dRMlhRuO2l0DSaVs1BuHTTkfwM7SQhltxi33CX55yLwZWLJJA4FbKIAoSKqiaVyv3+wVZU1T1LmvKlCxE25L5Ml4MrQl59i3COmeNVoOOzTOfqEECN1vL2pYT/IumVmgQ1Xq+ERP4ZAHAo0lNrsC5RSzuxdkZiEW3c8M/EfMp3mi0xRtv9VfkJ4k4ivsnvOPUWSj45mFQHFFcB5KO0qCk4+AxOE1h6MmuW8XyG5kU8ZLGkBYy+thti3fHW9TryhJx/hc6nCkGgBUHMUzJ05L1YJiMA7nbBoPhKC8JfY7HO14TBWQED/ccaTq4j3QGz1NXuD9GUBUtRGZ7HSAZzcbJr9T/CNKLegLo7Q3lNVQXRVlpXjWIaeRlVl4bkGZBen4wdpOiEXQO4dFTZVFryiB7fsV7e1x12Mk9JFPtQXOjaVLPWJmahtyJLxe3ztrFlUlr0oOVEW+Go4u/Fm4fu23TtKp+xsYZNKY36iXTxzppW7n4q7RbjTuLurBL/8qHQq+raTYqe8lUg0kWo2FlHDUOQ3wLUBB5nWfDEzTrFIsj+4hF3RuuACQGpeJ4yTEeWcCbyAsQyQoQcYW5E8wFsSJLiK3SW/VCIHevZ7rSgSNaP7EytgWv3Uf5R+Fcql+dzzqK1p+Xl4ItDNSSFi7iFjcdPk1rmYvHpwbBACp6Isy4eGlwppfVBCNEyUihJNBgI8rOW+9U5ubLr+Ik6qBrI0CKRhCXhCkTXsvkR/lYpj8gATO50qoc3h2vOniCz/BS1Slr4BBBDrzztgCsjKkdqZPigg+TB0Iiry3zpecrBD+c/ysvLC3syHJzwpQxzNaIEp5rX+8+/WElgugbYeewH6psCL1ThrepPcPAGMHaELzZK+x/cd4KzQDAwMDAwMDAwMDAwMDAwMDAwMDAwMDAwMDAwMDAwMDAwMDAwMl/B/RXidKJrt7+wAAAABJRU5ErkJggg==;" parent="1" vertex="1">
                    <mxGeometry x="960" y="669.9999999999999" width="73.6" height="73.6" as="geometry"/>
                </mxCell>
                <mxCell id="52" value="&lt;font style=&quot;font-size: 16px;&quot;&gt;&lt;b&gt;kubeadm Local k8s Cluster&lt;/b&gt;&lt;/font&gt;" style="points=[[0,0],[0.25,0],[0.5,0],[0.75,0],[1,0],[1,0.25],[1,0.5],[1,0.75],[1,1],[0.75,1],[0.5,1],[0.25,1],[0,1],[0,0.75],[0,0.5],[0,0.25]];outlineConnect=0;gradientColor=none;html=1;whiteSpace=wrap;fontSize=12;fontStyle=0;container=1;pointerEvents=0;collapsible=0;recursiveResize=0;shape=mxgraph.aws4.group;grIcon=mxgraph.aws4.group_vpc2;strokeColor=#8C4FFF;fillColor=none;verticalAlign=top;align=left;spacingLeft=30;fontColor=#AAB7B8;dashed=0;strokeWidth=3;" parent="1" vertex="1">
                    <mxGeometry x="230" y="270" width="1392" height="840" as="geometry"/>
                </mxCell>
                <mxCell id="4" value="MongoDB Namespace" style="sketch=0;outlineConnect=0;html=1;whiteSpace=wrap;fontSize=12;fontStyle=0;shape=mxgraph.aws4.group;grIcon=mxgraph.aws4.group_vpc;strokeColor=#82b366;fillColor=none;verticalAlign=top;align=left;spacingLeft=30;dashed=0;" parent="52" vertex="1">
                    <mxGeometry x="890" y="70" width="420" height="160" as="geometry"/>
                </mxCell>
                <mxCell id="42" value="MongoDB ReplicaSet&lt;div&gt;Cluster&lt;/div&gt;" style="dashed=0;outlineConnect=0;html=1;align=center;labelPosition=center;verticalLabelPosition=bottom;verticalAlign=top;shape=mxgraph.weblogos.mongodb" parent="52" vertex="1">
                    <mxGeometry x="1045" y="93.89999999999998" width="41.2" height="86.2" as="geometry"/>
                </mxCell>
                <mxCell id="43" value="MongoDB Operator&#xa;To detect MongoDB &#xa;Custom Resource &#xa;and spinup native k8s objects" style="shape=rect;fillColor=#0F62FE;aspect=fixed;resizable=0;labelPosition=center;verticalLabelPosition=bottom;align=center;verticalAlign=top;strokeColor=none;fontSize=12;" parent="52" vertex="1">
                    <mxGeometry x="1195" y="113" width="48" height="48" as="geometry"/>
                </mxCell>
                <mxCell id="44" value="" style="fillColor=#ffffff;strokeColor=none;dashed=0;outlineConnect=0;html=1;labelPosition=center;verticalLabelPosition=bottom;verticalAlign=top;part=1;movable=0;resizable=0;rotatable=0;shape=mxgraph.ibm_cloud.database--mongodb" parent="43" vertex="1">
                    <mxGeometry width="24" height="24" relative="1" as="geometry">
                        <mxPoint x="12" y="12" as="offset"/>
                    </mxGeometry>
                </mxCell>
                <mxCell id="64" value="Cluster IP Service" style="shape=rect;fillColor=#198038;aspect=fixed;resizable=0;labelPosition=center;verticalLabelPosition=bottom;align=center;verticalAlign=top;strokeColor=none;fontSize=12;" parent="52" vertex="1">
                    <mxGeometry x="920" y="119" width="48" height="48" as="geometry"/>
                </mxCell>
                <mxCell id="65" value="" style="fillColor=#ffffff;strokeColor=none;dashed=0;outlineConnect=0;html=1;labelPosition=center;verticalLabelPosition=bottom;verticalAlign=top;part=1;movable=0;resizable=0;rotatable=0;shape=mxgraph.ibm_cloud.ibm-cloud--kubernetes-service" parent="64" vertex="1">
                    <mxGeometry width="24" height="24" relative="1" as="geometry">
                        <mxPoint x="12" y="12" as="offset"/>
                    </mxGeometry>
                </mxCell>
                <mxCell id="40" value="S3 Compatible Object Storage" style="shape=image;verticalLabelPosition=bottom;labelBackgroundColor=default;verticalAlign=top;aspect=fixed;imageAspect=0;image=https://blog.min.io/content/images/2019/05/MINIO_wordmark.png;" parent="52" vertex="1">
                    <mxGeometry x="1010" y="520" width="175" height="26.4" as="geometry"/>
                </mxCell>
                <mxCell id="39" value="Delta Table" style="shape=image;verticalLabelPosition=bottom;labelBackgroundColor=default;verticalAlign=top;aspect=fixed;imageAspect=0;image=data:image/png,iVBORw0KGgoAAAANSUhEUgAAARcAAAC1CAMAAABCrku3AAAAkFBMVEX///8ArdQArdP//v8ArNX///0AqtMArtMAqtT9//8Artb4/f4AsNUAqdP0/P3n+Pvc9Pnv+/0AtNiF1um+6vTi9vrI7faR2ux30ufX8vik4e+b3e615/Eputs4v9xlzeVRxeHP7/h80ueZ4OxRw+A8vd6t5PI7wt0Zutlsz+i55/Oh4e1lzuN70emi3u86u90Pra6NAAARxklEQVR4nO1dCXuqOhMmIQESKCoouLHYxZ4u97v//999MxM917YE9RxbcHnv8jxdtGScfYvj3HDDDTfccMMNN9xwww033HDDDTdcGsI4Drt+hl5BKUc5o7SIkjqT8JWr3K4fqQ+QSionrpgQjCVjB+kku36mPkA6ruvkQBahOStH8OWNMA6xi+PMEq4F41wHqZQgS10/VB/gghy9CK2ZZozxZHajCwFpMGagWzgjVCGK1g1AhbgWbAsRjUG0bgzjKFfOxX90YcFz7N7sNGJS7JCFcbFA1XuDk/IdsjAtisnVKxj0bLNklywMDHaK6uWaeUaCp6sqwT/IEajeDH6mrpcwEv9dgw3yd+giuOZVCCbpem2SAsMz+pd9BAcXj8/R2+v68boD8ER+p7XP9Y7eBZYRxUheMV1c6QwTwZne5RcNgsR4Kt3rpQuo3UqwJoho1vXDdYpx1EwXP6iuV+06zqhsJgsIk1461xsNzOH8zYRh4mnU9dN1hmGBKbpGfvEFW3T9eF1Aop8/9Rhvpgu4eiKZwK9dnywpJ4vAh2NWQRL3ECTIK1O/EDCGtWDcbyaLBmdP6Kzrp+wAGBgJpnkzXThmqsTzNcaOg4JEqJkuwEn4g/lVJWJMOTEVaKO1Tb0QdYrBNREGokXXWSXMYop2hSm9IroorC9KS2D0QfkykVyR6nVdML7LiFst9A6C6ppaHJQLgRHfzzCYo3rt+mF/DKh1H9Di7CWL4FqUGCZdhXOH2ahiP69saZOjQur6mX8EWKY/mC4sGTrXkQJXziraL0O/4b04VxEkSSd+PEC3bKFZNL4SOYLA6AATvQUXddz1E38zQIFKKQfFIbZohy4aw6SL7kVUmGdKPc2O0LtCiGIo3YtWMXi8VXIEUQAam+4u3YWRMqxacnSN/MKpmuReMmXA4K4xd3mMHGkNhKkvOkMFZxvYKkbtPKPXl8wugFwcYYp2CFMOLtiJUXKSHOO67CK/YK9XOtVRrssuwxSXXMjP/BYxEsKujjnz3rt++O8BenRx7Vny3PBtUS6mkbDWTVj0Cnr7EptiXOfNzhICc/8qD2xlWSBXGaNNujDCgNKUw0IIW11EizX81ujJImeU9Zxf4GgSiJG8R3Gw8QsEzeDerC1ZXw6Ew37ny+tGlE6WgBj5loMnGc5juU7tNZON6Dm9vAZ5nNTDBtRGEeI8uFeSupyzhDWFCfQ6AcS7tMYP5SytVpiTiBiNKlMMFJu7hShDdWkMExY2soBOFQvKbYOUyEFhpR/Y6nXXxzg5iA8s5xVl6KBCRSmRa8tvoZODYdJlYZYwWwSgRZSZmUaFZiuurSEU13dp1wc5LcJ3YWt14b54UcaQm0GKcWTlLC2S2eVoGDjy2LeGPhorZ7tQL14zx3CcwanCS5mXxWn6uiUbJfIPv66cYWJpXkUVrcdUyb0AwCkeWpIL4nEkP8lG3hwtcM2BMOXoQhIxUk6sNhqxdD6m4pSMLclOTJiLT+x1tgAvdtpCFVAYn+QCuGHZPE6BgsTFr+H5q16FvtrKMjRCJ/06UANhEo7fWF4D8dV0s+vijIHljbC2mWhM0U2/vAYN9iqx1rCBlBmYuHOuQJrod26Ld5iPA3ufX0THVbmwpO60z4M6BtN/1gyjKNdkLQEIzDV9fYlLXc+210A4RYX8Do5zItDQSPp5gHFXJJpaOFzKVq5bKgfU73zOqRgIkmfNXr2hFGqK5le6YR2gx9LsyVC/8/nKEZxZVTYJgn/EVFnoAsyQaaFtVgnDpDOmCxxvqW0JXfBEsFbWTBcMrqcBx81KTS/mog7PWcHgYKe1YMTu7C2oOJFlmlkt8ybR8odPclosbIUyUKrB85fA6DdI9S6AeBbdyz1cXHaWQIMBgdGHnRS7ZGFtLe6UiImfhW1uS4ggP0uTJDGOdqfWbBSc7H2vghgLa6oclNPQOUejBOGiHEc2xQmaM5nt+7QhTPIsZNWCjNk5doIrDIxAvdgG9fZnaqUza2uX8cdnWa12nTfsvbV5IAeN6MnUntDSorbr7d5CYogTsKYBRo7f4+tDIhw5sNh5M47+NbjqPeDM6Z31s2bsMTzks1Y0TGxr38Rg/Oz0rrOKLDPjfDO3uJcsmHwKa+yZsbwRm56dHDlhJWy1Efj2C5qSA2xJe7JP6NXZ0eU1su6k8I3vsbeVRVKe4p5zS4zli6A+t7HQUQmem60pDFeYuAcs1nKVdHH8xGasBdPnVMhH9zxn1slOLcqjBooWVrJoHmC/85nMP0pyyNDTt8XC42PeTtmLldwXIkeuOxOvVzqVBxGfjV2OXallW85FfhBmqM7EKilnrJlVjjDXdkwuX1nHZ00+7yU8mzXGuPEGqdIoR15OFaJjYBu35kSa8XmIkcQ1Y83nEMj55eC4FbKuK50caNzkJeK3vDLsvd6lDSZyYq39aAgk18cuwgd7Dlaf2XIxXDx823lOBUnqILXO6WlKWDtHDbdKCdpo2ZJuEMWk93oXr4pYRTaVC5ER9i8TCxwMKanGLWyr7jgX054XTSQW0xW2bFuXr5VD58gV1fCWEqdouSVRDF511PftOfjZotLl9t7Lx3w9C0m9uBQi7Y+qTXtUKhobwQlB1fN+Z3f/YKfweFROswF2xsiDb/SRzuSp7X3X/fbtQEDy/fOuAkfop+sB/f6Blkk6c2bGShrfsuz34jKFmep9ZNGcI2n8Yro6OH4EAsa1PULHQn6fnTtpK9N/JMymIn/H6vmBlEFbnUXWyYEe9zsbRTG2lel34VOgjdmmQPzKJwe9Pdh/+YLcYuGYzX7n3jGNcrGQZi3T2yDAjV8MlHNQiWySCFuQzkT0irTrHV3Ih0Ub3exl2IASJYoFNtkdYLIXVgWDN5DF0unh2JYCjpn8Oo5dNDZEgb/KSsxU7e9uHz1ZxIg6GxdOPyv5uH/ZPtjZTBdGq3aZ0NXwEOVg6Xcm6y2SYR/5BQAGg1sVY/N5jAuLdjtZHFB+VJVnb0b0puqowOunQJ2CreAbJuFf2j/gJ3412xdo07IhbSO94FkP6QIOqSWy2z62IJHBQ1Fp9ZNFh/ivWKpW/xcPnXp2luxnNWnwZO3i2Tk9Xhhg/F2+a1uQg0QQ5a2pN0X9ztzq9mKXdP/0S8rb+AXsBe3sDoAigSHgx8uguPBxX1LbXKfC+HvJbDES48Gv/o2FWgMjQwQuoqQoy8f68bGuH8uySKgzZvsabTZacFGu7H+CfEfMqdvoL8wNZH0BDdPUgU93dpqd3UbDauSNKCrKKp1n2Ww4GcQGg8lwla3Tukh84ZmusE0RWhTtC3clTeTbnF7sk5A9uowBnhY/bnDSaNWARlYXwvOi8iVfruKQKPfBn8WvlQqHy/ylEHfIVJxzGkdL1u33Wqp7a4GXMa+SPdpcJjEw4sQfnCIYoImflOl4NqKb9cwFwR8fV7mu8cLUZJU+J9pDniErFeXtEcHQNhUIDMv9dW92fqA2fAiMIvHJEIukTtcbFegavlZfPBO6i8/dxEWTt6rgxnxju0Orlvh4PegOOJq7Mu6NHCn6CMkXB/GJivfx5L+0iqR2DWy0/fC47qane7OtAtlmXUYBtoeLfXlsrCY1yhHe0+YtelMckNiK4eMghNB1Pjays/0Z8YlrFIbcVgLcD+Gz2vwXZyn1unDR2lAoTTWpoTFYoyTiRc39ECTHydEL9aIinX0cy1N0dT1W6bFJxf1PnVLh/svTSzVIC8bu2i5Xc5GoECbZMg5cvPRFv4DzUnhecj+OP4/XYfIBVSwoWUUqxrSGbWXnM3AaaZDXdVt/DG7wpX5nq3N9XHvN9wEt43AxH5pE4gf9CvziWmpEsqG33+xhi9uLQbTDN2+UI6N8g57sd94mPaTp3/hsS6SK40n2ul4gHhbzJVhv9GgaDo/tdJjI3TMCDJQePNlufEH99Haqo/0ttoqD1Mkuwsnsf9PHJIl8LgiM+1EUPVVp9lsV/aaP627dnH3evJRLq4IBchWH5dJ/DqRZldr0oMZj8PQpCvrgcNBXQkRl9TAzW4KU2f9yjHkN7RtCBPPuezZoYmafyRMfjN8TjaGzNZYB6F/TbEAaSskjZyCyyEYXRhc192pPOtab8YHCbFoIz6hBa2sD1R09UaZZbPYhHvGH4AO4b950Z2heh/2w1VuQ5h2s64jSc4JZVxAws7WEpuejeo5Bw5HFn7blKcJf9qv8iBm1/MnksinqbWyL29CFchLEU6LMh0cxDDoxi5bZJPbUlwwVOfNgQBfFAenMrx+wSNKJiRqUPJBxwmdQUM3qS+N+Z3yn7pUM+Rzxorj7k73mlJlIphOz/OXQgNja7wwIsJDvHqe0vgXoqWa1treQtZPFx0RWkg/QLB262UVN7eVqX7yrPiyJARGK84Q1bwY9ANoMXz2tsdRx6Ic8Sywyi1kcvAbH7ZwujjOsN8/0R3QRdGsYELXODm/XVAsblTGP+hR3nLqjWGf8R/q2gUDJO7Zsuqam2jpCI52R/T4yMHKLrtthpBPOmb035UjCBFE6U1RF2yasbH8WM1QtTkwx6bQfBnd93qPBPAlZMH3tRdOhsUqtYqCU2xImAWH+6dQeSTmqsRBgnWc8DlhVAB94+hrSoVoOhtFp3jKMLJKWIt0PYFijd6WPuu2pDRx7hbzoeT3ZIwZAs6k9SoLH6TBMwo5jzxjZz+xCC7c2K6I2exo25cg9Tg6FVoKDpzc2qTeT/tzoGkU5c5e+u0pa3yfqiGHQDg6fRNMMDFacTYREZOCmHklVxUOhgWmK91csumySVSbYcDf5/tHsrbVbGP7S/7qhCzzvkNYrf0m2UtVRGz7hpkBP90HRvi1rR8KXc8Hve0WVL2exmSnYFFqkiifLvE6CPe/jdXTtriuHj6b36TNdIKLD/IoGh1xgpRpAXS4bbjmsa5MIibktP/q3Tuer2RAxW63zqkx8zxPMHq0jXUXw3FEKfFR6vHGhORqoAGjhsV9FXb/f39+/1HWZwNfBwf4fTQNwasGjfsaAJQhtdryxxs9j9xHgv19f1kx+O5ChRzTgyX7fJKe3TyQ8nfxbT/PlcDCKQxACCJPjOB4NZuu0fkr4RgD2xJjYU2U6XzedeSb5aS5ZwFjMNqtl3pyz4OfpQptSp97uZ48XR1Cc4xfVYmkfihhl85ciMlOg+PTiz2LwvRBdlJKQXfJtg6UBECXw2FP1sBq1Pg68NBy9vhQgVKSHW3J6fwXOvA76p6SzjnaqobgTQERl/mpqNy0J/m1JbfhaR1gu4KeKrD5D++LnbzunUaOdAQ9xFz1BvEd2VGGt1J50MzvcsJY9uy9EgP7tdzAMfGhdTMpuY3zf7Bwo81m4cb8wQWtPCJHvirU0yo2Mls/sqN75YwjD9nRenRimvP4SCFpOhw2DxdZh/wPE4xcqkZkU9mkYx0QduCvyRxPfWKV4234oInqeUybpj99OZdPEMI19IeZxILV32BKrU0Jt5hjBxN4l1Tj8q84tlCs1myae2et8EpGiCCJZ/vBVmKAZwgqfP+AJptY+96Ae/3bw/2GaYEdm+4zBodDgVRcZ9Tye7NR7gWRYoCfOy3xgegf/SowV2SfslCoovXUSiGpy5Fz/KTDBAkUxP3Wtc7AoUDNwbBvXts2ardTwKaWhRbQIf37SXDor4ZUPg2/4OAbzR1PcRh/4WNbRtI8Tw6g6a/MUvgtShovFd7ApnmQ0LyMhrO1zbeCY9IJghOZIf750tFkO9Q263qU+EbWE+KDtgl07v6DWK/LRTqfwD0I62z640/9p8yHHWZXY7uFoAebCihw3NcjPfX4/hO+8sIreWq1Smhcwjp5lzp78Hb5hFexrjOq37VRCB/zyE8CLHOdP+g6zUHqzILBxNpsG08m7DZIq60fj7ncCBSrM7hPP+0/RNLAMmnXNmXcnqjXtQe++f+H7AacczOuCecJvzFhSbhBTpkX9NqRgvvv2qG+G3Gp3x5m9VcUmtfuJLJhB5zjqNPltAXoyMvGNIMqY+CYcrfLqsUgYlVs2ZRfhJ0Vd5ePBpiJpSHINYvQR8SxbrvP0vqrr6p80na9fs2HPmnQ7gqlQqzDclB6Jl75No/wfYzPT2jlNWgsAAAAASUVORK5CYII=;" parent="52" vertex="1">
                    <mxGeometry x="1195" y="503.2" width="92.49" height="60" as="geometry"/>
                </mxCell>
                <mxCell id="76" value="Spark Master" style="shape=image;verticalLabelPosition=bottom;labelBackgroundColor=default;verticalAlign=top;aspect=fixed;imageAspect=0;image=https://cdn.icon-icons.com/icons2/2699/PNG/512/apache_spark_logo_icon_170560.png;" vertex="1" parent="52">
                    <mxGeometry x="1045" y="330" width="60" height="60" as="geometry"/>
                </mxCell>
                <mxCell id="63" value="Istio Operators&lt;div&gt;To detect Istio Custom Resource and spinup native k8s objects&lt;/div&gt;" style="sketch=0;html=1;verticalAlign=top;labelPosition=center;verticalLabelPosition=bottom;align=center;spacingTop=-6;fontSize=11;fontStyle=1;fontColor=#999999;shape=image;aspect=fixed;imageAspect=0;image=data:image/svg+xml,PHN2ZyB4bWxucz0iaHR0cDovL3d3dy53My5vcmcvMjAwMC9zdmciIHhtbG5zOnY9Imh0dHBzOi8vdmVjdGEuaW8vbmFubyIgd2lkdGg9IjE2MCIgaGVpZ2h0PSIyNDAiIHZpZXdCb3g9IjAgMCAxNjAgMjQwIj4mI3hhOwk8c3R5bGUgdHlwZT0idGV4dC9jc3MiPiYjeGE7CS5zdDB7ZmlsbDojNDY2YmIwO30mI3hhOwk8L3N0eWxlPiYjeGE7CTxwYXRoIGNsYXNzPSJzdDAiIGQ9Ik02MCAyNDBMMCAyMTBoMTYwem0wLTE2MEwwIDIwMGw2MC0xMHpNNzAgMHYxOTBsOTAgMTB6Ii8+JiN4YTs8L3N2Zz4=;" parent="1" vertex="1">
                    <mxGeometry x="406" y="860" width="37.29" height="58" as="geometry"/>
                </mxCell>
                <mxCell id="68" value="Cluster IP Service" style="shape=rect;fillColor=#198038;aspect=fixed;resizable=0;labelPosition=center;verticalLabelPosition=bottom;align=center;verticalAlign=top;strokeColor=none;fontSize=12;" parent="1" vertex="1">
                    <mxGeometry x="1150" y="611" width="48" height="48" as="geometry"/>
                </mxCell>
                <mxCell id="69" value="" style="fillColor=#ffffff;strokeColor=none;dashed=0;outlineConnect=0;html=1;labelPosition=center;verticalLabelPosition=bottom;verticalAlign=top;part=1;movable=0;resizable=0;rotatable=0;shape=mxgraph.ibm_cloud.ibm-cloud--kubernetes-service" parent="68" vertex="1">
                    <mxGeometry width="24" height="24" relative="1" as="geometry">
                        <mxPoint x="12" y="12" as="offset"/>
                    </mxGeometry>
                </mxCell>
                <mxCell id="70" value="Cluster IP Service" style="shape=rect;fillColor=#198038;aspect=fixed;resizable=0;labelPosition=center;verticalLabelPosition=bottom;align=center;verticalAlign=top;strokeColor=none;fontSize=12;" parent="1" vertex="1">
                    <mxGeometry x="1150" y="781" width="48" height="48" as="geometry"/>
                </mxCell>
                <mxCell id="71" value="" style="fillColor=#ffffff;strokeColor=none;dashed=0;outlineConnect=0;html=1;labelPosition=center;verticalLabelPosition=bottom;verticalAlign=top;part=1;movable=0;resizable=0;rotatable=0;shape=mxgraph.ibm_cloud.ibm-cloud--kubernetes-service" parent="70" vertex="1">
                    <mxGeometry width="24" height="24" relative="1" as="geometry">
                        <mxPoint x="12" y="12" as="offset"/>
                    </mxGeometry>
                </mxCell>
                <mxCell id="77" value="Spark Workers" style="shape=image;verticalLabelPosition=bottom;labelBackgroundColor=default;verticalAlign=top;aspect=fixed;imageAspect=0;image=https://cdn.icon-icons.com/icons2/2699/PNG/512/apache_spark_logo_icon_170560.png;" vertex="1" parent="1">
                    <mxGeometry x="1420" y="599" width="60" height="60" as="geometry"/>
                </mxCell>
            </root>
        </mxGraphModel>
    </diagram>
</mxfile>